<?xml version="1.0" standalone="no"?>
<!DOCTYPE svg PUBLIC "-//W3C//DTD SVG 1.1//EN" "http://www.w3.org/Graphics/SVG/1.1/DTD/svg11.dtd" >
<!--
2013-9-30: Created.
-->
<svg>
<metadata>
Created by iconfont
</metadata>
<defs>

<font id="iconfont" horiz-adv-x="1024" >
  <font-face
    font-family="iconfont"
    font-weight="500"
    font-stretch="normal"
    units-per-em="1024"
    ascent="896"
    descent="-128"
  />
    <missing-glyph />
    
    <glyph glyph-name="gengduo" unicode="&#58884;" d="M520.822 455.421c-16.607 0-32.823-6.747-44.5-18.422-11.677-11.677-18.422-28.023-18.422-44.5 0-16.607 6.747-32.823 18.422-44.5 11.677-11.677 28.023-18.422 44.5-18.422 16.607 0 32.823 6.747 44.5 18.422 11.677 11.677 18.422 28.023 18.422 44.5 0 16.607-6.747 32.823-18.422 44.5-11.677 11.677-27.893 18.422-44.5 18.422zM309.738 455.421c-16.607 0-32.823-6.747-44.5-18.422s-18.422-28.023-18.422-44.5c0-16.607 6.747-32.823 18.422-44.5 11.677-11.677 28.023-18.422 44.5-18.422 16.607 0 32.823 6.747 44.5 18.422 11.677 11.677 18.422 28.023 18.422 44.5 0 16.607-6.747 32.823-18.422 44.5-11.677 11.677-27.893 18.422-44.5 18.422zM731.906 455.421c-16.607 0-32.823-6.747-44.5-18.422s-18.422-28.023-18.422-44.5c0-16.607 6.747-32.823 18.422-44.5 11.677-11.677 28.023-18.422 44.5-18.422 16.607 0 32.823 6.747 44.5 18.422 11.677 11.677 18.422 28.023 18.422 44.5 0 16.607-6.747 32.823-18.422 44.5-11.677 11.677-27.893 18.422-44.5 18.422zM967.122 575.818c-24.91 58.771-60.458 111.705-105.867 156.983s-98.212 80.957-156.983 105.867c-60.847 25.818-125.586 38.791-192.272 38.791-66.686 0-131.425-13.104-192.272-38.791-58.771-24.91-111.705-60.458-156.983-105.867-45.408-45.408-80.957-98.212-105.867-156.983-25.818-60.847-38.791-125.586-38.791-192.272 0-66.686 13.104-131.425 38.791-192.272 24.91-58.771 60.458-111.705 105.867-156.983 45.408-45.408 98.212-80.957 156.983-105.867 60.847-25.689 125.586-38.791 192.272-38.791 66.686 0 131.425 13.104 192.272 38.791 58.771 24.91 111.705 60.458 156.983 105.867s80.957 98.212 105.867 156.983c25.818 60.847 38.791 125.586 38.791 192.272 0 66.686-12.974 131.425-38.791 192.272zM512-54.71c-241.702 0-438.256 196.684-438.256 438.256 0 241.702 196.684 438.256 438.256 438.256 241.702 0 438.256-196.684 438.256-438.256 0-241.702-196.554-438.256-438.256-438.256z"  horiz-adv-x="1024" />

    
    <glyph glyph-name="caiwu" unicode="&#58895;" d="M991.942 399.341c-18.442 12.831-44.764 23.836-78.238 32.711-53.909 14.293-126.992 22.827-195.496 22.827-28.662 0-52.752-1.57-68.171-4.432L650.037 707.782c0 28.622-34.407 57.946-94.397 80.453C493.653 811.492 414.304 824.3 332.21 824.3c-88.272 0-172.086-12.806-236.002-36.06-61.141-22.244-96.208-51.57-96.208-80.459l0-561.221c0-35.177 33.28-64.869 96.243-85.868 59.268-19.765 143.069-30.652 235.967-30.652l42.481 0c25.36-31.263 76.902-54.854 153.215-70.125 59.752-11.956 123.835-16.216 163.883-16.216 39.674 0 116.76 2.341 187.285 18.021 76.932 17.105 125.643 45.192 144.778 83.483l0.148 0.295L1024 348.024C1024.001 367.276 1013.215 384.542 991.942 399.341zM434.289 129.922c57.478-28.082 144.092-42.32 257.501-42.32 119.346 0 215.735 15.019 271.884 42.322l0-69.706c0-26.565-111.659-56.165-271.884-56.165-147.378 0-257.501 29.652-257.501 56.165L434.289 129.922zM691.79 147.957c-147.378 0-257.501 29.652-257.501 56.165L434.289 273.825c57.477-28.081 144.091-42.319 257.501-42.319 119.346 0 215.736 15.019 271.884 42.321l0-69.705C963.675 177.557 852.016 147.957 691.79 147.957zM691.79 291.859c-168.458 0-257.501 19.422-257.501 56.165 0 12.612 26.397 23.621 74.328 30.998 45.802 7.05 109.143 10.777 183.173 10.777 167.704 0 271.884-16.007 271.884-41.775C963.675 310.756 872.2 291.859 691.79 291.859zM332.21 378.202c-94.374 0-163.131 10.128-195.717 16.165-55.883 10.354-76.168 20.988-76.168 25.609l0 84.091c56.173-27.605 156.388-56.706 271.885-56.706 105.075 0 203.804 30.313 257.501 56.706l0-54.1c-99.664-14.376-185.762-43.127-214.926-71.765L332.21 378.202zM332.21 507.714c-91.917 0-162.016 14.623-195.621 23.34-52.026 13.495-76.264 27.565-76.264 32.825l0 84.091c56.173-27.605 156.388-56.706 271.885-56.706 105.075 0 203.804 30.313 257.501 56.706l0-84.091C589.712 537.366 479.59 507.714 332.21 507.714zM332.21 651.616c-160.226 0-271.885 29.6-271.885 56.165s111.659 56.165 271.885 56.165c147.379 0 257.501-29.652 257.501-56.165S479.59 651.616 332.21 651.616zM373.964 317.847l0-83.548-41.753 0c-160.226 0-271.885 29.599-271.885 56.164l0 69.706c56.151-27.302 152.54-42.322 271.885-42.322L373.964 317.847zM373.964 173.945l0-83.549-41.753 0c-160.226 0-271.885 29.6-271.885 56.165l0 69.706C116.476 188.964 212.866 173.945 332.21 173.945L373.964 173.945z"  horiz-adv-x="1025" />

    
    <glyph glyph-name="hxzfont16" unicode="&#58975;" d="M786.304 793.6 786.304 896 237.696 896l0-102.4L73.152 793.6 73.152-128l329.152 0 0 102.4 219.456 0L621.76-128l329.152 0L950.912 793.6 786.304 793.6zM457.152 128 347.456 128l0 102.4 109.696 0L457.152 128zM457.152 332.8 347.456 332.8 347.456 435.2l109.696 0L457.152 332.8zM457.152 537.6 347.456 537.6 347.456 640l109.696 0L457.152 537.6zM676.544 128 566.848 128l0 102.4 109.696 0L676.544 128zM676.544 332.8 566.848 332.8 566.848 435.2l109.696 0L676.544 332.8zM676.544 537.6 566.848 537.6 566.848 640l109.696 0L676.544 537.6z"  horiz-adv-x="1024" />

    
    <glyph glyph-name="jinrong" unicode="&#58937;" d="M975.724502-45.144992c-18.334353-6.675795-37.198531-12.252203-56.54196-16.570277 12.332881 11.517673 24.25876 24.001072 35.793291 37.208164-9.552504 11.251556-17.557678 23.804796-23.91919 37.309313-27.553308-33.094796-58.66126-60.762498-92.630267-81.065632L838.426376 128.815819c27.413627-0.871803 54.322716-3.53899 80.573136-7.730628 3.546215 15.992286 9.312878 31.134443 17.045915 45.060411-31.585999 5.999064-64.18589 9.794537-97.619051 10.884291L838.426376 363.401855l215.7339 0c-1.01028-39.893414-5.740172-78.788589-13.62734-116.083452 13.733305 3.613647 28.074704 5.731743 42.94352 5.731743 2.010927 0 3.96285-0.231196 5.956919-0.301037 7.279073 35.646385 11.798239 72.611311 12.788049 110.652746l173.32743 0c-3.004349-67.658652-20.751077-131.46403-50.055216-188.344356 12.759149-19.961157 21.365193-42.762898 24.765706-67.274528 51.189523 79.707354 81.000608 174.452104 81.000608 276.217035 0 282.770007-229.229987 511.999994-511.999994 511.999994S307.261167 666.770013 307.261167 384.000006s229.229987-511.999994 511.999994-511.999994c78.952353 0 153.713068 17.902064 220.492691 49.819203C1015.933402-71.790373 994.143145-60.473793 975.724502-45.144992zM1275.550057 404.599361 1101.989023 404.599361c-3.245178 82.887508-22.503112 160.839214-52.792244 229.842898 39.162496 15.379375 75.758953 34.208632 109.039188 55.739998C1227.164994 613.918766 1270.678075 514.289992 1275.550057 404.599361zM1127.33272 721.258901c-29.927887-18.059807-62.733687-33.575251-97.731036-46.134511-33.136941 62.626518-75.359176 116.225541-122.236647 157.112377C991.142409 815.862766 1066.730374 776.647287 1127.33272 721.258901zM838.42758 827.934346c59.985822-35.855906 111.471566-94.042732 149.137306-166.154322-47.059297-13.06139-97.23854-20.944945-149.137306-22.595832L838.42758 827.934346zM838.42758 590.968914c59.274171 1.932657 116.03649 12.125767 168.879308 28.693636 27.052382-64.627812 43.640721-137.939937 46.584862-215.063189L838.42758 404.599361 838.42758 590.968914zM713.210668 828.301611c-44.33431-39.648972-84.32526-90.641015-116.162925-149.933248-30.974292 11.687458-60.100216 25.759128-86.976793 41.826071C566.515373 772.130529 636.076578 809.955217 713.210668 828.301611zM479.276076 689.017846c30.159084-19.353062 62.933576-36.572374 97.924904-50.951102-31.200671-69.882712-51.026963-149.142123-54.328736-233.467383L362.972265 404.599361C367.81896 513.743309 410.94551 612.903669 479.276076 689.017846zM362.972265 363.401855l159.667578 0c2.201182-84.607031 21.127976-164.242135 51.55438-234.706451-33.86545-14.123448-65.623642-30.915288-94.916943-49.713238C410.944306 155.096343 367.81896 254.259111 362.972265 363.401855zM510.087807 47.791128c25.772373 15.409478 53.623106 28.971794 83.180116 40.367848 29.46429-56.610596 66.405134-105.89877 107.487041-145.353874C628.589188-37.85749 563.476104-1.32967 510.087807 47.791128zM797.22887-72.252766c-1.402832 0.067432-2.794827 0.164968-4.194046 0.244442-64.077516 36.190659-118.942098 97.574497-158.149148 174.4509 50.816238 15.352883 105.566426 24.568226 162.343194 26.373243L797.22887-72.252766zM797.22887 177.028689c-63.990818-2.085584-125.073619-13.771837-181.434956-32.73596-26.962071 65.91625-43.107284 140.639636-45.094128 219.109126l226.529084 0L797.22887 177.028689zM797.22887 404.599361l-226.259355 0c2.989899 78.310542 20.021364 152.710013 47.816706 218.059109 55.522047-18.371682 115.592159-29.638892 178.442649-31.687147L797.22887 404.599361zM797.22887 639.190214c-55.357079 1.75926-108.793541 10.551946-158.535679 25.216057C678.489069 739.560742 733.380142 799.293693 797.22887 834.035763L797.22887 639.190214zM1083.476456 253.050147c-93.104701 0-168.580679-75.477183-168.580679-168.580679 0-93.104701 75.475978-168.580679 168.580679-168.580679s168.580679 75.475978 168.580679 168.580679C1252.057135 177.572964 1176.581157 253.050147 1083.476456 253.050147zM1083.476456-45.980671c-72.045362 0-130.448934 58.404776-130.448934 130.450138 0 72.044158 58.403572 130.448934 130.448934 130.448934s130.450138-58.404776 130.450138-130.448934C1213.926594 12.424105 1155.521817-45.980671 1083.476456-45.980671zM1139.162267 45.445448c-0.007225 0-0.01445-0.002408-0.021675-0.002408l0 0.130048-43.208432 0 0 26.26487 43.208432 0 0 0.139681c0.007225 0 0.01445-0.002408 0.021675-0.002408 5.175427 0 9.371882 4.195251 9.371882 9.371882 0 5.175427-4.196455 9.371882-9.371882 9.371882-0.007225 0-0.01445-0.002408-0.021675-0.002408l0 0.002408-36.793937 0 40.358215 74.303139-0.01445 0.008429c1.473877 2.003702 2.372171 4.456551 2.372171 7.134575 0 6.681816-5.416256 12.098072-12.098072 12.098072-5.226001 0-9.636794-3.331877-11.328622-7.973866l-0.089107 0c0 0-34.894996-68.147536-36.50735-72.74738l-0.484067 0c-2.258981 5.728131-38.124521 72.74738-38.124521 72.74738l-0.091515 0c-1.641253 4.63356-6.01833 7.973866-11.214228 7.973866-6.595117 0-11.941533-5.346416-11.941533-11.941533 0-2.470911 0.750184-4.766017 2.036214-6.670978l-0.059003-0.031308 40.151101-74.897988-37.520039 0c-5.175427 0-9.371882-4.195251-9.371882-9.371882 0-5.175427 4.195251-9.371882 9.371882-9.371882l0-0.137273 44.539016 0 0-26.26487-44.539016 0 0-0.12764c-5.175427 0-9.371882-4.195251-9.371882-9.371882 0-5.175427 4.195251-9.371882 9.371882-9.371882l0-0.130048 44.539016 0 0-37.762072 0.256483 0c-0.160152-0.774267-0.248054-1.576229-0.248054-2.398662 0-6.499989 5.26935-11.76934 11.76934-11.76934 6.499989 0 11.76934 5.26935 11.76934 11.76934 0 0.822433-0.086699 1.623191-0.248054 2.398662l0.301037 0 0 37.762072 43.208432 0 0 0.132456c0.007225 0 0.01445-0.002408 0.021675-0.002408 5.175427 0 9.371882 4.195251 9.371882 9.371882C1148.532944 41.248993 1144.337694 45.445448 1139.162267 45.445448z"  horiz-adv-x="1332" />

    
    <glyph glyph-name="shibai" unicode="&#59041;" d="M507.713 879.739c-271.456 0-491.52-220.064-491.52-491.52s220.064-491.52 491.52-491.52 491.52 220.064 491.52 491.52-220.051 491.52-491.52 491.52zM783.251 367.739h-551.049v54.613h551.049v-54.613z"  horiz-adv-x="1024" />

    
    <glyph glyph-name="xinxi" unicode="&#58953;" d="M512.50142-62.397886c-119.320573 0-231.499491 46.465265-315.871087 130.837884C112.258737 152.811594 65.792449 264.989489 65.792449 384.311085c0 119.319549 46.466288 231.499491 130.837884 315.871087C281.002952 784.554792 393.180847 831.020056 512.50142 831.020056s231.499491-46.465265 315.871087-130.837884c84.372619-84.372619 130.837884-196.551538 130.837884-315.871087 0-119.321596-46.465265-231.499491-130.837884-315.871087C744.000911-15.932622 631.821993-62.397886 512.50142-62.397886zM512.50142 790.037666c-223.718271 0-405.726581-182.00831-405.726581-405.726581s182.00831-405.726581 405.726581-405.726581c223.718271 0 405.727605 182.00831 405.727605 405.726581S736.220714 790.037666 512.50142 790.037666zM510.150886 120.046353c-18.107403 0-32.745798 14.678304-32.745798 32.785707L477.405087 443.808154c0 18.108426 14.638395 32.785707 32.745798 32.785707 18.107403 0 32.745798-14.678304 32.745798-32.785707l0-290.976094C542.896684 134.724657 528.258289 120.046353 510.150886 120.046353zM511.357364 599.541031m-45.080731 0a44.054 44.054 0 1 0 90.161463 0 44.054 44.054 0 1 0-90.161463 0Z"  horiz-adv-x="1024" />

    
    <glyph glyph-name="xiangqu" unicode="&#58956;" d="M512-26.110425c-0.002047 0-0.004093 0-0.00614 0-5.574972 0.002047-10.916631 2.229784-14.84101 6.186909L370.833887 107.469919c-1.613754 1.622964-164.173107 165.007101-187.469696 188.304713C114.596991 364.540809 74.209142 441.7114 66.567092 518.942365c-7.609305 76.902484 18.981307 150.036132 74.874291 205.929116 54.793954 54.79293 121.562637 77.752852 193.072297 66.412572 59.33027-9.41237 120.361275-42.176588 177.48632-95.104031 57.122999 52.92642 118.155027 85.690638 177.485297 95.104031 71.513754 11.351536 138.279367-11.616572 193.072297-66.412572 55.891961-55.892985 82.482573-129.026632 74.874291-205.929116-7.643074-77.230965-48.0299-154.400532-116.7971-223.167732-50.870598-50.868551-311.172065-313.063135-313.795822-315.705312C522.914584-23.886781 517.572926-26.110425 512-26.110425zM298.928207 752.320647c-47.080272 0-89.998757-19.104103-127.914298-57.020668-47.547923-47.547923-69.27476-107.107413-62.829977-172.238806 6.67912-67.496254 42.902112-135.863341 104.751762-197.714014 23.334451-23.334451 185.92962-186.758498 187.568956-188.406021l111.505583-112.451118c56.269561 56.671721 255.224846 257.029958 299.05305 300.858162 61.850673 61.850673 98.073666 130.216737 104.750739 197.714014 6.446829 65.131393-15.280008 124.690884-62.828954 172.238806-45.573965 45.574988-98.377588 63.974034-156.947542 54.680367-55.707766-8.838296-114.234741-42.590004-169.251775-97.609085-3.922333-3.921309-9.240455-6.125511-14.785751-6.125511s-10.863419 2.203178-14.785751 6.124488c-55.020104 55.020104-113.546056 88.772836-169.252799 97.610108C318.119291 751.541911 308.437791 752.320647 298.928207 752.320647z"  horiz-adv-x="1024" />

    
    <glyph glyph-name="canting" unicode="&#58959;" d="M799.784402 317.477934 799.784402 758.676401c0 41.695634-27.965935 70.816882-68.006883 70.816882-20.681018 0-38.760792-7.601118-53.735855-22.593578-54.996568-55.057967-54.830793-202.063065-54.685483-331.764056l0.014326-18.275225c0-31.683607 8.089235-56.134485 24.043602-72.67316 15.112186-15.663748 36.401048-23.606651 63.275115-23.606651 4.578272 0 20.784372-0.011256 36.376489-0.021489 3.906983-0.00307 7.77508-0.005117 11.413957-0.008186l0-43.071981c-26.843368-6.79066-46.769186-31.144324-46.769186-60.068074l0-258.159688c0-34.165124 27.79402-61.959144 61.95812-61.959144l10.92584 0c34.164101 0 61.95812 27.79402 61.95812 61.959144l0 258.159688C846.551542 286.33361 826.62777 310.686251 799.784402 317.477934zM747.093343 401.86488c-15.604396 0.010233-31.821753 0.021489-36.404118 0.021489-40.437991 0-46.012963 26.421766-46.012963 54.974056l-0.014326 18.321274c-0.122797 109.551068-0.290619 259.58413 42.602284 302.526151 7.141654 7.14984 14.931061 10.479679 24.5133 10.479679 17.21815 0 26.701129-10.480702 26.701129-29.511127l0-356.819708C754.851027 401.859763 750.990093 401.86181 747.093343 401.86488zM805.245787-0.749828c0-11.388375-9.266038-20.653389-20.652366-20.653389l-10.92584 0c-11.387351 0-20.652366 9.266038-20.652366 20.653389l0 258.159688c0 11.388375 9.266038 20.652366 20.652366 20.652366l10.92584 0c11.387351 0 20.652366-9.265014 20.652366-20.652366L805.245787-0.749828zM425.797709 811.03284c-1.094938 10.375302-9.872858 18.459421-20.537755 18.459421-11.406794 0-20.652366-9.246595-20.652366-20.652366l0-0.596588c0-1.50733 0.165776-3.010567 0.49221-4.481058 3.930519-17.685801 8.343015-35.910884 13.013385-55.205323 16.07921-66.425875 34.305317-141.713582 34.305317-206.637244 0-42.007743-23.861454-79.975473-60.761875-96.712669-9.66922-4.368494-18.364253-7.661494-26.046213-9.880021L345.610412 810.056606c0 11.406794-9.246595 20.652366-20.652366 20.652366-11.406794 0-20.652366-9.246595-20.652366-20.652366l0-374.634446c-6.716982 1.885953-14.876826 4.758374-24.515347 9.146311-37.078477 16.946974-61.037145 55.081503-61.037145 97.151667 0 63.536059 17.578354 137.433092 33.085536 202.632023 4.998851 21.013593 9.719362 40.86164 13.859659 60.154032 2.393513 11.151991-4.707209 22.13309-15.860223 24.526603-11.142781 2.388397-22.13309-4.707209-24.526603-15.859199-4.045129-18.844184-8.713452-38.47836-13.658068-59.262732-16.034185-67.408249-34.20708-143.810337-34.20708-212.190727 0-58.190307 33.431414-111.070678 85.199451-134.733611 14.586207-6.639211 28.810163-11.398608 41.657772-14.018272l0-75.654051c-26.52512-7.009647-46.140876-31.206746-46.140876-59.904345l0-258.159688c0-34.165124 27.79402-61.959144 61.95812-61.959144l10.92584 0c34.164101 0 61.95812 27.79402 61.95812 61.959144l0 258.159688c0 29.147854-20.237927 53.643758-47.39545 60.213383l0 75.160817c12.636808 2.553149 26.733874 7.407714 43.080168 14.791891 51.655474 23.430642 85.032652 76.16468 85.032652 134.342708 0 69.852928-18.842137 147.684574-35.464723 216.355583C433.785637 776.754129 429.55222 794.242432 425.797709 811.03284zM351.701131 257.40986l0-258.159688c0-11.388375-9.265014-20.653389-20.652366-20.653389l-10.92584 0c-11.388375 0-20.652366 9.266038-20.652366 20.653389l0 258.159688c0 11.388375 9.263991 20.652366 20.652366 20.652366l10.92584 0C342.436116 278.063249 351.701131 268.798235 351.701131 257.40986z"  horiz-adv-x="1024" />

    
    <glyph glyph-name="daohang" unicode="&#58961;" d="M605.848435-62.708971c-0.36225 0-0.724501 0.008186-1.088798 0.026606-9.098215 0.468674-16.872273 6.712889-19.288299 15.495926L476.898551 347.541647 80.07064 458.16514c-8.760524 2.442632-14.976086 10.218736-15.427364 19.304671-0.451278 9.083889 4.965082 17.437138 13.44215 20.73423L929.251056 829.271226c7.80885 3.038196 16.669658 1.174756 22.597671-4.750187 5.922896-5.92392 7.788383-14.789844 4.751211-22.597671L625.531729-49.241238C622.361527-57.390849 614.518908-62.708971 605.848435-62.708971zM152.537092 481.827049l347.232352-96.79658c7.148817-1.9934 12.726859-7.591909 14.696724-14.746866l94.821599-344.730369 290.525839 746.93166L152.537092 481.827049z"  horiz-adv-x="1024" />

    
    <glyph glyph-name="dizhi" unicode="&#58962;" d="M511.998977 830.709995c-173.638689 0-314.904063-138.294716-314.904063-308.281225 0-77.603449 31.020504-185.005574 85.10633-294.67023 53.746088-108.971877 124.852566-209.287607 195.185424-275.377838 8.955976-9.602705 21.51092-15.08865 34.612309-15.08865 12.913101 0 25.359574 5.358031 34.296107 14.736633 149.549038 140.014894 280.608979 406.358985 280.608979 570.401108C826.904063 692.415278 685.637666 830.709995 511.998977 830.709995zM517.467525-18.127613l-1.128707-1.13894c-0.816598-0.8913-2.232854-1.952468-4.339842-1.952468-2.245134 0-3.695159 1.251503-4.361331 1.997494l-1.294482 1.327228C366.207519 113.420445 238.584863 370.958986 238.584863 522.427746c0 147.109476 122.652458 266.791276 273.414113 266.791276 150.761656 0 273.415137-119.6818 273.415137-266.791276C785.414113 370.516918 657.700383 112.869906 517.467525-18.127613zM513.044796 714.383616c-91.091648 0-165.199483-74.112951-165.199483-165.210739 0-91.076298 74.107835-165.172877 165.199483-165.172877 91.083461 0 165.184133 74.096579 165.184133 165.172877C678.228929 640.270664 604.128257 714.383616 513.044796 714.383616zM513.044796 425.48995c-68.213591 0-123.709533 55.484685-123.709533 123.682927 0 68.219731 55.495942 123.720789 123.709533 123.720789 68.205405 0 123.694183-55.501058 123.694183-123.720789C636.738979 480.974635 581.2502 425.48995 513.044796 425.48995z"  horiz-adv-x="1024" />

    
    <glyph glyph-name="fangdajing" unicode="&#58903;" d="M938.64603 9.726781l-173.071777 173.074847c53.665247 63.987337 86.075401 146.400325 86.075401 236.446154 0 203.406666-164.895561 368.298134-368.301204 368.298134-203.409736 0-368.302227-164.892491-368.302227-368.298134 0-203.409736 164.892491-368.302227 368.302227-368.302227 89.246627 0 171.055864 31.767518 234.798631 84.579327l173.148525-173.148525c1.576915-1.576915 8.15575 2.443655 14.6957 8.979512l23.675212 23.675212C936.205445 1.571031 940.222945 8.149866 938.64603 9.726781zM483.347426 117.906619c-166.425404 0-301.338093 134.912689-301.338093 301.338093s134.912689 301.338093 301.338093 301.338093S784.685519 585.670116 784.685519 419.244712 649.773853 117.906619 483.347426 117.906619z"  horiz-adv-x="1024" />

    
    <glyph glyph-name="gongshangyinxing" unicode="&#58908;" d="M512.030118-127.879529C229.345882-127.879529 0.150588 101.285647 0.150588 383.969882 0.150588 666.714353 229.345882 895.819294 512.030118 895.819294 794.714353 895.819294 1023.849412 666.714353 1023.849412 383.969882 1023.849412 101.285647 794.714353-127.879529 512.030118-127.879529ZM512.030118 829.952C265.788235 829.952 66.078118 630.272 66.078118 383.969882 66.078118 137.758118 265.788235-61.982118 512.030118-61.982118 758.362353-61.982118 958.012235 137.758118 958.012235 383.969882 958.012235 630.272 758.362353 829.952 512.030118 829.952ZM529.197176 167.393882 726.738824 167.393882 726.738824 261.662118 529.197176 261.662118 529.197176 484.201412 726.738824 484.201412 726.738824 561.272471 529.197176 561.272471 529.197176 642.800941 807.574588 642.800941 807.574588 411.557647 605.936941 411.557647 605.936941 344.033882 807.574588 344.033882 807.574588 94.750118 529.197176 94.750118 529.197176 167.393882ZM216.515765 344.033882 418.123294 344.033882 418.123294 411.557647 216.515765 411.557647 216.515765 642.800941 494.923294 642.800941 494.923294 561.272471 297.261176 561.272471 297.261176 484.201412 494.923294 484.201412 494.923294 261.662118 297.261176 261.662118 297.261176 167.393882 494.923294 167.393882 494.923294 94.750118 216.515765 94.750118 216.515765 344.033882Z"  horiz-adv-x="1024" />

    
    <glyph glyph-name="dianhua" unicode="&#58888;" d="M935.254 135.253c0-158.72-72.746-158.72-423.254-158.72-350.506 0-423.254 0-423.254 158.72 0 171.946 191.786 515.84 423.254 515.84 231.466 0 423.254-343.894 423.254-515.84v0 0zM512 578.347c-99.2 0-178.56-79.36-178.56-178.56s79.36-178.56 178.56-178.56c99.2 0 178.56 79.36 178.56 178.56 0 99.2-79.36 178.56-178.56 178.56v0 0zM141.654 446.079c72.746 119.040 198.4 244.694 370.346 244.694s310.826-138.88 370.346-244.694c33.066-52.906 92.586-46.294 119.040 0 19.84 33.066 72.746 330.666-489.386 330.666-562.134 0-509.226-304.214-489.386-330.666 39.68-52.906 105.814-26.454 119.040 0v0 0z"  horiz-adv-x="1024" />

    
    <glyph glyph-name="zuanshi" unicode="&#58989;" d="M418.625868 219.168907M912.389528 510.290311 695.19995 697.282123c-3.285836 2.823302-7.477298 4.38282-11.805884 4.38282l-239.893672 0c-2.448772 0.503467-4.913916 0.476861-7.27366 0L327.278393 701.664943c-4.710278 0-9.227152-1.586125-12.602016-4.869914L121.775996 510.047788c-7.021927-6.809079-7.365758-17.476023-0.768503-24.705682l386.256134-422.245813c3.419889-3.746324 8.253988-3.949962 13.325493-3.949962l0.00921 0 0.026606 0 0.068562 0c5.118578 0 9.987468 0.257873 13.399171 4.057409L914.033981 484.484575c3.25309 3.619434 4.91494 8.396227 4.604878 13.246699C918.320611 502.591979 916.066267 507.117039 912.389528 510.290311M352.077196 475.426269 472.249159 153.21273 178.180634 475.426269 352.077196 475.426269zM575.259254 665.467533l81.392752-153.842831L384.765689 511.624702 451.639772 665.467533 575.259254 665.467533zM652.58641 475.426269 520.712941 125.011434 390.333498 475.426269 652.58641 475.426269zM691.232592 475.426269l166.029384 0L570.469158 155.977703 691.232592 475.426269zM855.345324 511.624702l-157.74265 0-81.382519 153.842831 60.458977 0L855.345324 511.624702zM334.605266 665.467533l77.477582 0-66.98767-153.842831-169.193447 0L334.605266 665.467533z"  horiz-adv-x="1024" />

    
    <glyph glyph-name="dangan" unicode="&#58982;" d="M968.986 601.064 968.986 786.431c0 30.081-24.265 54.534-54.097 54.534l-492.56 0-9.443 22.139C404.317 883.117 384.805 896 363.229 896L54.097 896C24.265 896 0 871.547 0 841.528l0-856.602c0-30.081 24.265-54.534 54.097-54.534l914.639 0c29.769 0 54.034 24.453 54.034 54.534L1022.77 546.592C1022.769 576.549 998.629 600.939 968.986 601.064zM896.69 601.064 478.489 601.064 443.013 768.67 896.69 768.67 896.69 601.064zM950.474 2.687 72.296 2.687 72.296 823.704l278.801 0 12.758-29.941 50.032-236.352c0.266-1.294 1.016-2.318 1.423-3.545 0.594-1.821 1.22-3.518 2.079-5.199 1.235-2.439 2.752-4.569 4.472-6.621 1.063-1.274 2.017-2.541 3.244-3.655 2.189-1.99 4.651-3.494 7.247-4.894 1.274-0.688 2.376-1.544 3.721-2.076 4.128-1.622 8.505-2.654 13.086-2.654 0.016 0 0.031 0.004 0.039 0.004s0.016-0.004 0.023-0.004L896.69 528.767l36.148 0 17.636 0L950.474 2.687z"  horiz-adv-x="1024" />

    
    <glyph glyph-name="shuiwu" unicode="&#58963;" d="M893.792473 755.72928 130.003889 755.72928c-71.66418 0-130.032542-57.045227-130.032542-127.187751l0-489.082034c0-70.098521 58.368362-127.187751 130.032542-127.187751l763.788583 0c71.796186 0 130.164548 57.08923 130.164548 127.187751L1023.957021 628.540506C1023.957021 698.684052 965.588659 755.72928 893.792473 755.72928L893.792473 755.72928 893.792473 755.72928zM983.009424 123.604388c0-38.610366-32.744775-70.03303-73.075319-70.03303l-796.070824 0c-40.198537 0-72.943312 31.42164-72.943312 70.03303L40.919968 644.418125c0 38.632879 32.744775 70.010517 72.943312 70.010517l796.070824 0c40.330544 0 73.075319-31.377638 73.075319-70.010517L983.009424 123.604388 983.009424 123.604388 983.009424 123.604388zM465.304492 252.512317l-12.657274 0c-5.535063 0-6.328126 1.124614-6.328126 12.745279l0 94.708012L491.016083 359.965607l0 131.024126-37.9708 0c9.877975 18.565844 20.154016 40.198537 30.054503 61.0791l-48.64286 15.08251c-6.329149-23.197328-18.58938-54.530964-29.679973-76.16161l-42.293245 0 23.74889 10.429537c-5.954619 18.169825-21.367657 45.226041-36.009122 65.314565l-38.764885-16.604166c11.885701-18.169825 24.12342-41.367153 30.848589-59.139935L301.18255 490.989733l0-131.024126 36.406165 0c-3.969405-52.613288-14.641465-93.186356-71.973218-117.5523 9.481955-8.092305 22.138206-25.116027 27.67327-35.920094 68.797899 31.685653 83.814917 85.423555 89.37147 153.472394l20.573571 0 0-95.126544c0-39.029922 7.122211-51.7752 41.10314-51.7752l26.085098 0c26.924209 0 37.993313 14.685467 41.543162 69.172429-11.466146 2.690272-29.65746 10.077519-37.9708 17.022699C472.824769 258.267391 471.214085 252.512317 465.304492 252.512317L465.304492 252.512317 465.304492 252.512317zM443.937858 400.141632l-97.662297 0 0 50.628074 97.662297 0L443.937858 400.141632 443.937858 400.141632 443.937858 400.141632zM296.04453 358.795968c-7.496741 8.863878-39.933501 42.138726-50.628074 51.42216l0 5.755074 47.474244 0 0 42.931788-47.474244 0L245.416456 514.958634c17.001209 3.483334 33.626865 8.511861 47.871287 13.913894l-26.107611 37.111223c-32.039717-12.766768-80.683601-24.343431-124.563994-31.312146 4.740978-10.055007 10.694573-25.116027 12.657274-35.568077 14.222933 1.543146 29.261441 3.858888 44.695968 6.570649l0-46.769186L141.823076 458.90499l0-42.931788 49.436946 0c-13.824867-36.691667-35.986609-78.081333-57.728796-102.800317 7.497765-11.973706 18.170848-31.311123 22.536272-44.850487 15.810081 19.713994 30.826076 48.313356 43.901883 78.852906l0-139.933029 45.446052 0L245.415432 364.969575c9.900487-15.45704 19.382443-31.664164 24.520463-42.931788L296.04453 358.795968 296.04453 358.795968 296.04453 358.795968zM853.66045 531.58429 621.886713 531.58429c-16.626679 0-30.098505-13.098319-30.098505-29.348422 0-16.229636 13.472849-29.349445 30.098505-29.349445l231.773737 0c16.648169 0 30.121018 13.119809 30.121018 29.349445C883.781468 518.485971 870.308619 531.58429 853.66045 531.58429L853.66045 531.58429 853.66045 531.58429zM621.886713 360.273622l145.732106 0c16.604166 0 30.077016 13.119809 30.077016 29.326932 0 16.251126-13.472849 29.370935-30.077016 29.370935L621.886713 418.971489c-16.626679 0-30.098505-13.119809-30.098505-29.370935C591.787184 373.393431 605.260034 360.273622 621.886713 360.273622L621.886713 360.273622 621.886713 360.273622zM824.972061 306.359712 621.886713 306.359712c-16.626679 0-30.098505-13.119809-30.098505-29.370935 0-16.207124 13.472849-29.371958 30.098505-29.371958L824.972061 247.61682c16.625656 0 30.121018 13.164834 30.121018 29.371958C855.093079 293.239903 841.59874 306.359712 824.972061 306.359712L824.972061 306.359712 824.972061 306.359712z"  horiz-adv-x="1040" />

    
    <glyph glyph-name="combinedshapecopy2" unicode="&#58964;" d="M0-60.865864 1146.877993-60.865864 1146.877993-124.7232 0-124.7232 0-60.865864ZM0-16.775537 300.529213 68.547994 85.868257 281.896387 0-16.775537ZM802.673951 567.629578 588.010209 780.980716 115.744481 311.621509 330.405437 98.291139 802.673951 567.629578ZM902.442885 746.845225 768.272343 880.181371C746.042941 902.277693 708.804076 901.074616 685.091594 877.515981L620.682076 813.523681 835.34721 600.173896 899.75255 664.185651C923.465032 687.745638 924.668109 724.746117 902.442885 746.845225Z"  horiz-adv-x="1147" />

    
    <glyph glyph-name="xiaolian" unicode="&#58933;" d="M510.742357 22.353356 510.742357 22.353356c200.425775 0 362.904287 162.477488 362.904287 362.903264S711.168132 748.160907 510.742357 748.160907 147.839093 585.683419 147.839093 385.257643 310.316581 22.353356 510.742357 22.353356L510.742357 22.353356 510.742357 22.353356zM510.742357-61.393 510.742357-61.393c-246.678192 0-446.650643 199.972451-446.650643 446.650643S264.064164 831.908286 510.742357 831.908286s446.650643-199.972451 446.650643-446.650643S757.420549-61.393 510.742357-61.393L510.742357-61.393 510.742357-61.393zM371.164415 399.21554c38.542828 0 69.789483 31.245631 69.789483 69.789483s-31.245631 69.789483-69.789483 69.789483-69.789483-31.245631-69.789483-69.789483S332.620563 399.21554 371.164415 399.21554L371.164415 399.21554 371.164415 399.21554zM650.321322 399.21554c38.542828 0 69.789483 31.245631 69.789483 69.789483s-31.245631 69.789483-69.789483 69.789483-69.789483-31.245631-69.789483-69.789483S611.777471 399.21554 650.321322 399.21554L650.321322 399.21554 650.321322 399.21554zM510.742357 184.264956c-70.936609 0-134.833895 44.928259-163.711596 111.663172 0 0-2.702552 28.013007-32.18298 28.013007-29.479405 0-27.431769-28.013007-27.431769-28.013007 31.077809-95.710852 118.818129-167.493735 223.325321-167.493735 104.369046 0 197.074448 71.978335 223.325321 167.493735 0 0 0 28.013007-27.200502 28.013007-27.199479 0-31.508621-28.013007-31.508621-28.013007C650.39807 231.152846 583.466682 184.264956 510.742357 184.264956L510.742357 184.264956z"  horiz-adv-x="1024" />

    
    <glyph glyph-name="kulian" unicode="&#58934;" d="M510.742357 22.353356 510.742357 22.353356c200.425775 0 362.904287 162.477488 362.904287 362.903264S711.168132 748.160907 510.742357 748.160907 147.839093 585.683419 147.839093 385.257643 310.316581 22.353356 510.742357 22.353356L510.742357 22.353356 510.742357 22.353356zM510.742357-61.393 510.742357-61.393c-246.678192 0-446.650643 199.972451-446.650643 446.650643S264.064164 831.908286 510.742357 831.908286s446.650643-199.972451 446.650643-446.650643S757.420549-61.393 510.742357-61.393L510.742357-61.393 510.742357-61.393zM371.164415 399.21554c38.542828 0 69.789483 31.245631 69.789483 69.789483s-31.245631 69.789483-69.789483 69.789483-69.789483-31.245631-69.789483-69.789483S332.620563 399.21554 371.164415 399.21554L371.164415 399.21554 371.164415 399.21554zM650.321322 399.21554c38.542828 0 69.789483 31.245631 69.789483 69.789483s-31.245631 69.789483-69.789483 69.789483-69.789483-31.245631-69.789483-69.789483S611.777471 399.21554 650.321322 399.21554L650.321322 399.21554 650.321322 399.21554zM510.742357 268.108526c72.724325 0 139.655713-46.888913 164.616198-111.663172 0 0 4.309142-28.013007 31.508621-28.013007 27.200502 0 27.200502 28.013007 27.200502 28.013007-26.250874 95.515401-118.956276 167.493735-223.325321 167.493735-104.507192 0-192.247512-71.783907-223.325321-167.493735 0 0-2.047636-28.013007 27.431769-28.013007 29.480428 0 32.18298 28.013007 32.18298 28.013007C375.908462 223.181291 439.805748 268.108526 510.742357 268.108526L510.742357 268.108526z"  horiz-adv-x="1024" />

    
    <glyph glyph-name="weibiaoti2010101" unicode="&#58940;" d="M352 672C371.2 672 384 684.8 384 704L384 800C384 819.2 371.2 832 352 832 332.8 832 320 819.2 320 800L320 704C320 684.8 332.8 672 352 672zM704 672c19.2 0 32 12.8 32 32L736 800C736 819.2 723.2 832 704 832c-19.2 0-32-12.8-32-32L672 704C672 684.8 684.8 672 704 672zM864 32c0-19.2-12.8-32-32-32L192 0c-19.2 0-32 12.8-32 32L160 512l704 0L864 32zM844.8 768l-44.8 0C780.8 768 768 755.2 768 736 768 716.8 780.8 704 800 704l44.8 0c6.4 0 19.2-12.8 19.2-32L864 576l-704 0L160 672C160 691.2 172.8 704 192 704l64 0c19.2 0 32 12.8 32 32C288 755.2 275.2 768 256 768L192 768C140.8 768 96 723.2 96 672l0-640C96-19.2 140.8-64 192-64l640 0c51.2 0 96 44.8 96 96l0 640C928 723.2 889.6 768 844.8 768zM448 704l160 0C627.2 704 640 716.8 640 736 640 755.2 627.2 768 608 768L448 768C428.8 768 416 755.2 416 736 416 716.8 428.8 704 448 704zM256 128l512 0c19.2 0 32 12.8 32 32 0 19.2-12.8 32-32 32L256 192c-19.2 0-32-12.8-32-32C224 140.8 236.8 128 256 128zM256 320l512 0c19.2 0 32 12.8 32 32C800 371.2 787.2 384 768 384L256 384C236.8 384 224 371.2 224 352 224 332.8 236.8 320 256 320z"  horiz-adv-x="1024" />

    
    <glyph glyph-name="daiban" unicode="&#58921;" d="M120.759083 3.4679V768.352217c0 4.252196 3.447422 7.713952 7.699618 7.713952h643.527285c4.252196 0 7.713952-3.461756 7.713952-7.713952V459.760347h55.82018V768.352217c0 35.024045-28.495752 63.534132-63.534132 63.534132H128.458701c-35.024045 0-63.519798-28.510087-63.519798-63.534132v-764.884317c0-35.024045 28.495752-63.534132 63.519798-63.534133h360.269409v55.820181H128.458701c-4.252196 0-7.699618 3.461756-7.699618 7.713952zM287.660582 343.213528c-15.41357 0-27.91009-12.48321-27.91009-27.91009s12.49652-27.91009 27.91009-27.91009h111.449918c15.41357 0 27.91009 12.48321 27.91009 27.91009s-12.49652 27.91009-27.91009 27.91009h-111.449918zM636.53722 466.300926c0 15.42688-12.49652 27.91009-27.91009 27.91009H287.660582c-15.41357 0-27.91009-12.48321-27.91009-27.91009s12.49652-27.91009 27.91009-27.91009h320.966548c15.41357 0 27.91009 12.48321 27.91009 27.91009zM608.62713 639.704097H287.660582c-15.41357 0-27.91009-12.48321-27.91009-27.91009s12.49652-27.91009 27.91009-27.91009h320.966548c15.41357 0 27.91009 12.48321 27.91009 27.91009s-12.49652 27.91009-27.91009 27.91009zM820.392212 177.251956h-55.643048v90.271873c0 15.42688-12.49652 27.91009-27.91009 27.91009s-27.91009-12.48321-27.91009-27.91009v-118.181963c0-15.42688 12.49652-27.91009 27.91009-27.91009H820.393236c15.41357 0 27.91009 12.48321 27.91009 27.91009-0.001024 15.42688-12.497544 27.91009-27.911114 27.91009zM738.670805 380.874078c-121.258739 0-219.559921-98.300158-219.559921-219.559921 0-121.259763 98.300158-219.560945 219.559921-219.560945 121.259763 0 219.560945 98.300158 219.560945 219.560945 0 121.259763-98.301182 219.559921-219.560945 219.559921z m0-383.299662c-90.286208 0-163.739741 73.453533-163.739741 163.740765 0 90.286208 73.453533 163.739741 163.739741 163.739741 90.286208 0 163.739741-73.453533 163.739741-163.739741 0.001024-90.287232-73.452509-163.740765-163.739741-163.740765z"  horiz-adv-x="1024" />

    
    <glyph glyph-name="hzk-xchs" unicode="&#58905;" d="M807 587.2l9.3 28c6.9 20.8 5.3 43.1-4.6 62.7s-26.8 34.2-47.6 41.2l-327.1 108.5c-21 6.9-43.2 5.4-62.7-4.6-19.6-9.9-34.2-26.8-41.2-47.6-1.1-3.4-1.5-6.8-1.2-10.2l-3.2 0.7c-21.4 5.2-43.5 1.8-62.2-9.5-18.8-11.4-32-29.5-37.2-50.7l-30.8-125.9c-36.5-18.5-61.6-56.3-61.6-99.9v-432c0-61.6 50.1-111.8 111.8-111.8h526.9c61.6 0 111.8 50.2 111.8 111.8v432c-0.2 50.7-34.1 93.6-80.4 107.3zM383 758.9c2.5 7.6 7.8 13.6 14.8 17.2 7.2 3.5 15.2 4 22.6 1.6l327.1-108.5c7.5-2.5 13.6-7.8 17.2-14.8 3.5-7.1 4.1-15.1 1.6-22.6l-13.3-40h-28c3 19.1-0.7 38.5-11 55.3-11.4 18.8-29.4 32-50.7 37.2l-282.9 69.2c1 1.6 2 3.4 2.6 5.4zM280.3 693.3c1.9 7.7 6.6 14.2 13.5 18.4 6.7 4 14.8 5.3 22.4 3.4l334.7-81.9c7.7-1.9 14.2-6.6 18.4-13.5 4.1-6.7 5.3-14.7 3.4-22.4-0.4-1.9-0.7-3.7-0.7-5.6h-416.6l24.9 101.6zM834.7 47.9c0-32.7-26.6-59.2-59.2-59.2h-526.9c-32.7 0-59.2 26.6-59.2 59.2v432c0 32.7 26.6 59.2 59.2 59.2h526.9c32.7 0 59.2-26.6 59.2-59.2v-432zM580.7 398.5h51.4l-80.7-149.1h65.4v-38.9h-82.2v-22.3h82.2v-36.9h-82.2v-68.1h-43.8v68.1h-82.7v36.9h82.7v22.3h-82.7v38.9h65.3l-81 149.1h48.6l58.9-110.2c5-9.1 8.8-17.2 11.9-24.4 3.1 6.9 7.5 15.7 12.9 26.2l56 108.4z"  horiz-adv-x="1024" />

    
    <glyph glyph-name="report" unicode="&#58988;" d="M832 832h-640c-70.4 0-128-57.6-128-128v-640c0-70.4 57.6-128 128-128h640c70.4 0 128 57.6 128 128v640c0 70.4-57.6 128-128 128zM320 96c0-17.6-14.4-32-32-32h-64c-17.6 0-32 14.4-32 32v320c0 17.6 14.4 32 32 32h64c17.6 0 32-14.4 32-32v-320zM576.6 96c0-17.6-14.4-32-32-32h-64c-17.6 0-32 14.4-32 32v448c0 17.6 14.4 32 32 32h64c17.6 0 32-14.4 32-32v-448zM832 96c0-17.6-14.4-32-32-32h-64c-17.6 0-32 14.4-32 32v384c0 17.6 14.4 32 32 32h64c17.6 0 32-14.4 32-32v-384z"  horiz-adv-x="1024" />

    
    <glyph glyph-name="gongwenbaoline_" unicode="&#59053;" d="M938.666667 725.333333h-170.666667V768c0 70.4-57.6 128-128 128H384c-70.4 0-128-57.6-128-128v-42.666667H85.333333c-46.933333 0-85.333333-38.4-85.333333-85.333333v-682.666667c0-46.933333 38.4-85.333333 85.333333-85.333333h853.333334c46.933333 0 85.333333 38.4 85.333333 85.333333V640c0 46.933333-38.4 85.333333-85.333333 85.333333zM320 768c0 36.266667 27.733333 64 64 64h256c36.266667 0 64-27.733333 64-64v-42.666667H320V768z m640-810.666667c0-12.8-8.533333-21.333333-21.333333-21.333333H85.333333c-12.8 0-21.333333 8.533333-21.333333 21.333333V409.6h354.133333c2.133333-8.533333 10.666667-17.066667 19.2-17.066667h149.333334c10.666667 0 17.066667 6.4 19.2 17.066667H960V-42.666667zM605.866667 443.733333c-2.133333 8.533333-10.666667 17.066667-19.2 17.066667h-149.333334c-10.666667 0-17.066667-6.4-19.2-17.066667H64V640c0 12.8 8.533333 21.333333 21.333333 21.333333h853.333334c12.8 0 21.333333-8.533333 21.333333-21.333333v-196.266667H605.866667z"  horiz-adv-x="1024" />

    
    <glyph glyph-name="tudi" unicode="&#59024;" d="M1425.794442 654.341632c17.365038-121.60143-226.060262-724.675018-395.597589-776.36722C860.739268-173.707297 19.847556 124.259959 2.178237 259.484812-36.226301 553.284459 450.429138 859.570145 665.279245 892.117786c195.497796 29.620242 743.148061-116.172626 760.515197-237.776154zM511.371501 689.655089c-66.027014-73.866987 224.664764-105.791376 259.396937-100.93756 34.809818 4.941953 150.042318 140.311602 125.949509 155.078704-17.931631 11.050669-144.911501 39.993098-208.170601 53.971166a88.575332 88.575332 0 0 1-70.089698-14.269759 621.657851 621.657851 0 0 1-107.077753-93.84465m389.109046-70.704557C854.051368 543.29143 1119.857106 478.714476 1148.5687 476.091358c29.200543-2.669284 79.52033 46.21933 100.370966 65.892711 21.005925 19.704858 28.317078 49.239062 10.866002 76.97066-14.355797 22.909259-186.07346 83.167513-245.2363 103.392797a37.401458 37.401458 0 0 1-37.936574-8.629007c-18.124692-16.850907-47.40288-47.910716-76.133361-94.76379m-38.587107-491.635166c24.502015-3.55275 49.090069 5.638653 66.91048 25.020344 44.807043 48.731227 130.171679 145.53895 161.56305 208.298609a35.166562 35.166562 0 0 1-6.396209 40.343546c-55.10855 52.911427-211.496714 84.779156-275.089475 95.875993a56.48726 56.48726 0 0 1-48.932682-15.640076c-94.551842-90.373741-164.158887-154.084018-184.877318-222.121389-6.715181-22.009005 4.150821-45.919245 23.763345-52.911427 61.276024-21.836928 199.959194-69.699378 263.058809-78.8656zM195.604819 438.603862c-142.697589-142.722771 132.834668-181.225939 200.020051-177.19683 53.117079 3.147741 225.248145 201.805869 238.242019 241.23657 11.403216 34.322967-179.125346 85.224037-227.869164 97.645023a30.671588 30.671588 0 0 1-22.972213-3.229582c-23.06035-13.210019-81.446748-52.491728-187.406003-158.455181m0 0"  horiz-adv-x="1426" />

    
    <glyph glyph-name="shouye" unicode="&#58880;" d="M971.4 371.7c-4.8 0-9.7 1.7-13.5 5.3L512 786.7 66.1 377c-8.1-7.5-20.8-6.9-28.3 1.2S30.9 399 39 406.5l459.5 422c7.7 7 19.4 7 27.1 0L985 406.4c8.1-7.5 8.7-20.1 1.2-28.3-4-4.2-9.4-6.4-14.8-6.4zM342.7-63H209.4c-41.6 0-75.5 33.9-75.5 75.5V414.1c0 11 9 20 20 20s20-9 20-20v-401.6c0-19.6 15.9-35.5 35.5-35.5h133.3c19.6 0 35.5 15.9 35.5 35.5v106c0 11 9 20 20 20s20-9 20-20v-106c0-41.6-33.9-75.5-75.5-75.5zM816.8-63H683.5c-41.6 0-75.5 33.9-75.5 75.5v106c0 11 9 20 20 20s20-9 20-20v-106c0-19.6 15.9-35.5 35.5-35.5h133.3c19.6 0 35.5 15.9 35.5 35.5V414.1c0 11 9 20 20 20s20-9 20-20v-401.6c0-41.6-33.9-75.5-75.5-75.5zM628-4.8c-11 0-20 9-20 20V136.8c0 19.6-15.9 35.5-35.5 35.5H453.7c-19.6 0-35.5-15.9-35.5-35.5v-121.6c0-11-9-20-20-20s-20 9-20 20V136.8c0 41.6 33.9 75.5 75.5 75.5h118.9c41.6 0 75.5-33.9 75.5-75.5v-121.6c-0.1-11-9-20-20.1-20zM872.3 556.1c-11 0-20 9-20 20v43.7c0 19.6-15.9 35.5-35.5 35.5h-59.5c-11 0-20 9-20 20s9 20 20 20h59.5c41.6 0 75.5-33.9 75.5-75.5v-43.7c0-11.1-9-20-20-20z"  horiz-adv-x="1024" />

    
    <glyph glyph-name="qiye" unicode="&#58925;" d="M991.68-65.184V818.656C983.776 875.392 944.64 894.88 902.848 894.88a25.088 25.088 0 0 1-5.12-0.544L413.376 799.04c-40.448-1.536-84.736-40.512-84.736-81.6l-7.456-141.984-125.568-23.424a76.096 76.096 0 0 1-72.896-76.16l6.592-541.056H29.856c-14.08 0-24.704-17.536-24.704-31.68 0-14.176 10.656-30.816 24.704-30.816h120c14.08 0 42.368 18.368 41.728 43.136V445.664c-3.648 47.872 30.56 54.592 32.224 54.944l448.832 88.704c12.672-1.12 33.472-13.408 31.552-37.28v-636.576c0-14.176 17.632-43.136 31.68-43.136h334.4c14.08 0 23.904 16.64 23.904 30.784 0 14.176-9.824 31.68-23.904 31.68H991.68z m-224.576 0v640.64c0 42.048-37.12 72.32-78.88 72.32-1.728 0-3.808 0.32-5.472 0l-298.464-58.464 4.256 116.864c0 13.76 11.168 33.888 24.832 33.888 1.728 0 489.472 98.56 489.472 98.56 12.672-1.088 25.024-5.824 24.832-37.056v-866.752H767.104zM288.011 349.459l313.007 66.532 13.307-62.602-313.007-66.532-13.307 62.602zM288.011 189.459l313.007 66.532 13.307-62.602-313.007-66.532-13.307 62.602zM288.011 29.459l313.007 66.532 13.307-62.602-313.007-66.532-13.307 62.602z"  horiz-adv-x="1120" />

    
    <glyph glyph-name="shezhi" unicode="&#58912;" d="M1077.056512 454.628352c-3.43552 18.161664-13.7216 29.896704-26.202112 29.896704l-0.453632-0.00512-3.30752-0.001024c-55.371776 0-100.419584 45.047808-100.419584 100.419584 0 17.685504 7.814144 36.384768 8.733696 38.526976 7.1424 16.072704 1.647616 35.781632-12.785664 45.852672l-0.68608 0.480256-91.190272 50.6624-0.728064 0.31744c-4.784128 2.077696-10.057728 3.132416-15.676416 3.132416-11.675648 0-23.094272-4.614144-30.550016-12.35456-0.417792-0.431104-42.166272-43.0848-78.61248-43.0848-36.780032 0-78.736384 43.481088-79.167488 43.931648-7.482368 7.882752-18.992128 12.589056-30.787584 12.589056-5.504 0-10.68032-1.016832-15.394816-3.02592l-0.748544-0.31744-94.41792-51.864576-0.708608-0.49152c-14.45888-10.044416-19.98336-29.727744-12.878848-45.722624 0.088064-0.191488 8.781824-20.221952 8.781824-38.6304 0-55.371776-45.048832-100.419584-100.421632-100.419584h-3.186688s-0.44032 0.007168-0.600064 0.007168c-12.466176 0-22.740992-11.73504-26.176512-29.893632-0.309248-1.642496-7.578624-40.580096-7.578624-70.892544 0-29.503488 6.801408-66.726912 7.5776-70.879232 3.44064-18.164736 13.725696-29.902848 26.200064-29.902848 0.11776 0 0.472064 0.012288 0.472064 0.012288h3.290112c55.3728 0 100.422656-45.049856 100.422656-100.42368 0-18.398208-8.660992-38.36416-8.733696-38.523904-7.133184-16.062464-1.656832-35.775488 12.729344-45.847552l0.689152-0.48128 89.457664-50.028544 0.734208-0.318464c4.762624-2.093056 10.006528-3.15392 15.586304-3.15392 11.798528 0 23.258112 4.801536 30.655488 12.847104 11.723776 12.740608 49.016832 45.80864 80.375808 45.80864 37.879808 0 80.472064-46.221312 80.910336-46.69952 7.409664-8.178688 18.950144-13.065216 30.86848-13.070336h0.004096c5.455872 0 10.60352 1.025024 15.290368 3.043328l0.744448 0.320512 92.734464 51.255296 0.705536 0.495616c14.434304 10.05568 19.944448 29.743104 12.821504 45.785088-0.088064 0.195584-8.756224 20.118528-8.756224 38.569984 0 55.373824 45.047808 100.42368 100.419584 100.42368h3.185664l0.524288-0.00512c12.512256 0 22.813696 11.732992 26.252288 29.90592 0.075776 0.395264 7.579648 39.877632 7.579648 70.874112 0 30.276608-7.268352 69.241856-7.5776 70.880256z m-32.182272-134.71744l-0.72192-3.991552-4.051968-0.20992c-70.851584-3.677184-126.354432-62.17216-126.354432-133.169152 0-23.840768 9.408512-46.886912 11.291648-51.264512l1.836032-4.260864-92.174336-50.945024-1.196032-0.054272c-0.113664-0.00512-0.23552-0.007168-0.371712-0.007168-2.390016 0-4.530176 0.846848-5.636096 1.57184l-0.5376 0.35328-0.436224 0.47616c-1.338368 1.465344-13.5936 14.698496-31.601664 28.064768-26.174464 19.44064-50.925568 29.297664-73.570304 29.297664-22.43072 0-46.998528-9.67168-73.024512-28.747776-17.678336-12.956672-30.099456-26.10688-31.45728-27.563008l-0.437248-0.468992-0.539648-0.347136c-1.098752-0.705536-3.217408-1.53088-5.572608-1.53088-0.16896 0-0.519168 0-0.95232 0.064512l-0.9216 0.139264-88.812544 49.660928 1.826816 4.241408c1.890304 4.386816 11.319296 27.482112 11.319296 51.323904 0 70.992896-55.498752 129.487872-126.348288 133.169152l-4.048896 0.20992-0.723968 3.989504c-1.14176 6.294528-6.839296 38.959104-6.839296 63.824896 0 24.713216 5.690368 57.503744 6.831104 63.82592l0.720896 3.9936 4.052992 0.210944c70.853632 3.680256 126.355456 62.174208 126.355456 133.167104 0 23.853056-9.399296 46.870528-11.283456 51.241984l-1.841152 4.274176 93.815808 51.52768 1.161216 0.064512c0.17408 0.009216 0.36864 0.017408 0.589824 0.017408 2.499584 0 4.907008-0.874496 6.183936-1.7408l0.447488-0.303104 0.37376-0.38912c1.335296-1.393664 13.558784-13.974528 31.135744-26.499072 25.686016-18.307072 49.84832-27.589632 71.815168-27.589632 21.757952 0 45.729792 9.10336 71.254016 27.058176 17.393664 12.232704 29.628416 24.624128 30.96576 25.997312l0.365568 0.374784 0.434176 0.292864c1.170432 0.791552 3.4816 1.717248 6.139904 1.717248 0.19968 0 0.379904-0.007168 0.56832-0.017408l1.216512-0.049152 90.756096-50.423808-1.825792-4.2496c-1.886208-4.393984-11.303936-27.513856-11.303936-51.301376 0-70.992896 55.501824-129.486848 126.35648-133.167104l4.051968-0.210944 0.719872-3.9936c1.14176-6.32832 6.832128-39.146496 6.832128-63.824896-0.001024-24.783872-5.69344-57.520128-6.833152-63.83104zM723.264512 507.904c-27.02848 0-52.713472-8.5504-74.28096-24.725504-6.33344-4.750336-7.617536-13.73696-2.866176-20.0704 4.750336-6.33344 13.734912-7.617536 20.0704-2.8672C682.752 472.665088 702.488576 479.232 723.264512 479.232c52.51072 0 95.232-42.72128 95.232-95.232s-42.72128-95.232-95.232-95.232-95.232 42.72128-95.232 95.232c0 14.564352 3.197952 28.535808 9.503744 41.526272 3.457024 7.122944 0.4864 15.699968-6.636544 19.156992-7.124992 3.459072-15.699968 0.487424-19.156992-6.636544-8.215552-16.924672-12.381184-35.108864-12.381184-54.04672 0-68.32128 55.58272-123.904 123.904-123.904s123.904 55.58272 123.904 123.904-55.584768 123.904-123.905024 123.904z"  horiz-adv-x="1433" />

    
    <glyph glyph-name="ruzhu" unicode="&#59193;" d="M718.285 246.98c-69.429 0-130.494 30.877-143.044 37.686-11.216 4.472-80.257 31.084-135.623 31.084-50.165 0-116.052-22.9-137.196-31.738a34.353 34.353 0 0 0-32.325 3.129A34.424 34.424 0 0 0 254.8 315.75V762.769c0 13.996 8.493 26.58 21.425 31.84 3.71 1.516 91.67 36.93 166.975 36.93 75.923 0 157.38-35.83 160.818-37.34a32.114 32.114 0 0 0 3.716-1.926c0.415-0.239 50.483-29.504 107.698-29.504 56.945 0 105.53 29.06 106.015 29.367 10.692 6.4 23.892 6.67 34.76 0.582 10.8-6.12 17.541-17.53 17.541-29.95V315.75c0-11.66-5.92-22.49-15.683-28.845-2.475-1.652-62.413-39.926-139.78-39.926zM439.617 384.52c74.072 0 160.038-35.522 163.68-37.032 1.31-0.552 2.58-1.167 3.818-1.888 0.484-0.278 53.576-29.85 111.169-29.85 36.52 0 68.532 12.036 86.684 20.563v373.47c-24.415-8.39-55.562-15.787-89.54-15.787-69.598 0-128.465 31.016-140.775 37.963-10.59 4.474-75.234 30.81-131.456 30.81-42.016 0-91.847-14.613-119.626-24.074v-374.46c32.15 9.835 75.85 20.286 116.046 20.286z m90.269-447.02H151.639V797.153c0 18.983 15.404 34.388 34.387 34.388 18.973 0 34.384-15.405 34.384-34.388v-790.87h309.476c19.013 0 34.384-15.375 34.384-34.392 0-19.014-15.371-34.39-34.384-34.39z m-343.859 0h-67.705c-18.983 0-34.389 15.376-34.389 34.389 0 19.012 15.406 34.387 34.39 34.387h67.704c18.979 0 34.384-15.375 34.384-34.387 0-19.013-15.406-34.388-34.384-34.388z m0 0"  horiz-adv-x="1024" />

    
    <glyph glyph-name="balloondecoration" unicode="&#58890;" d="M256.262789 313.020212c-95.937431 0-159.735822 185.479033-159.735823 256.952419 0.767499 16.181447 3.997393 38.502889 9.465827 53.565066a159.703843 159.703843 0 0 0 150.269996 105.211382A159.703843 159.703843 0 0 0 406.468826 623.537697c5.500413-15.062177 8.698327-37.383619 9.465827-53.565066 0-71.473386-63.766412-256.952419-159.703844-256.952419zM304.231504 281.041069a47.968715 47.968715 0 0 0-23.984358 41.572886 47.968715 47.968715 0 0 0-47.968715 0 47.968715 47.968715 0 0 0-23.984358-41.572886h47.968716zM208.326052 344.999356a15.989572 15.989572 0 0 1 0-31.979144c11.480513 0 34.409559-13.239365 47.648924-38.151118 13.239365-24.911753 18.228112-59.545165-0.479687-101.245969-20.402694-45.378405-31.947164-65.557244-39.366326-83.177752-7.419161-17.652487-9.593743-32.682685-9.593743-59.353291 0-33.002476 19.475298-62.998913 37.447577-86.055875a338.243402 338.243402 0 0 1 35.976537-39.302368 15.989572 15.989572 0 1 1 21.426026 23.728525s-16.117488 14.582489-32.234977 35.241016c-16.085509 20.658527-30.667999 47.361112-30.667998 66.388702 0 25.359461 1.055312 32.458831 7.131349 46.913404 6.076037 14.422594 18.228112 36.264349 39.014555 82.50619 22.449359 49.919443 17.204779 96.161285-0.415729 129.355636-5.116663 9.593743-12.663741 15.70176-19.379361 23.1529h39.174451a15.989572 15.989572 0 1 1 0 31.979144H208.326052zM767.737211 313.020212c-95.937431 0-159.703843 185.479033-159.703843 256.952419 0.767499 16.181447 3.965414 38.502889 9.465827 53.565066a159.703843 159.703843 0 0 0 150.238016 105.211382 159.703843 159.703843 0 0 0 150.269996-105.211382c5.468434-15.062177 8.698327-37.383619 9.465827-53.565066 0-71.473386-63.798391-256.952419-159.735823-256.952419zM815.705927 281.041069a47.968715 47.968715 0 0 0-23.984358 41.572886 47.968715 47.968715 0 0 0-47.968715 0 47.968715 47.968715 0 0 0-23.984358-41.572886h47.968715zM720.312141 344.999356a15.989572 15.989572 0 1 1 0-31.979144h39.142472c-6.71562-7.45114-14.262698-13.559157-19.347382-23.1529-17.652487-33.194351-22.929046-79.436193-0.511666-129.355636 20.786443-46.241842 33.034455-68.083597 39.110493-82.50619 6.076037-14.454573 7.131349-21.553943 7.131349-46.913404 0-19.02759-14.646448-45.730175-30.731957-66.388702-16.117488-20.658527-32.171018-35.241016-32.171019-35.241016a15.989572 15.989572 0 1 1 21.426026-23.728525s17.972279 16.213426 35.976537 39.302368c17.972279 23.088942 37.479556 53.085378 37.479556 86.055875 0 26.670606-2.23854 41.700803-9.625722 59.353291-7.419161 17.588529-19.02759 37.799348-39.430284 83.177752-18.707799 41.700803-13.655094 76.334216-0.415729 101.245969 13.239365 24.911753 36.136432 38.151118 47.584966 38.151118a15.989572 15.989572 0 0 1 0 31.979144h-95.61764zM511.776146 362.651843c-114.965021 0-191.395174 222.255048-191.395174 307.895195 0.895416 19.41134 4.796872 46.145904 11.352596 64.21412a191.395174 191.395174 0 0 0 289.954895 91.428372 191.395174 191.395174 0 0 0 70.130261-91.460351c6.587704-18.036237 10.45718-44.770801 11.352596-64.182141 0-85.640147-76.430153-307.895195-191.395174-307.895195zM569.242667 324.340829a57.466521 57.466521 0 0 0-28.717271 49.759547 57.466521 57.466521 0 0 0-57.4985 0 57.466521 57.466521 0 0 0-28.717271-49.759547h57.466521zM454.917229 397.764943a15.989572 15.989572 0 1 1 0-31.979144h53.597044c-9.753639-9.72166-19.954986-18.867695-27.118313-32.298935-20.690506-38.950597-26.958418-93.283162-0.447708-152.316661 24.879774-55.323918 39.430284-81.322962 46.849445-98.911491 7.419161-17.620508 8.826244-26.89446 8.826244-57.402563 0-24.176233-18.004258-56.603084-37.479557-81.578795-19.507278-25.00769-39.014555-42.596219-39.014555-42.596219a15.989572 15.989572 0 1 1 21.426026-23.728525s21.394047 19.187486 42.756115 46.65757c21.362068 27.406126 44.291114 63.09485 44.291114 101.245969 0 31.819248-2.558331 49.024027-11.320617 69.810471-8.762285 20.786443-22.705192 45.18653-47.169236 99.647011-22.801129 50.750901-16.78905 93.443058-0.479688 124.079077 16.309363 30.699978 44.323093 47.42507 59.896936 47.42507v31.979144h-114.61325z"  horiz-adv-x="1024" />

    
    <glyph glyph-name="ringbelljigled" unicode="&#58896;" d="M320.000006 550.528011a51.519998 51.519998 0 0 1-51.295998-51.231999A51.519998 51.519998 0 0 1 320.032006 448.000014c28.127999 0 51.231998 23.135999 51.231998 51.263998 0 28.095999-23.103999 51.231998-51.231998 51.231999z m0-31.999999c10.88 0 19.263999-8.416 19.263999-19.232a19.007999 19.007999 0 0 0-19.231999-19.263999 19.039999 19.039999 0 0 0-19.327999 19.263999c0 10.816 8.48 19.231999 19.327999 19.232zM963.999986 481.312013a189.343994 189.343994 0 0 0-69.311998-258.655992 189.343994 189.343994 0 0 0-258.687992 69.311998 189.343994 189.343994 0 0 0 69.311998 258.655992 189.343994 189.343994 0 0 0 258.687992-69.311998zM613.919997 306.560018l348.479989 201.183994a11.808 11.808 0 0 0 16.159999-4.352l11.84-20.479999a11.808 11.808 0 0 0-4.32-16.16l-348.479989-201.215993a11.808 11.808 0 0 0-16.159999 4.352l-11.84 20.479999a11.808 11.808 0 0 0 4.32 16.191999zM683.615995 237.440021a189.343994 189.343994 0 0 1 211.071993-14.784 189.343994 189.343994 0 0 1 92.767997 190.207994l-11.008-6.368a177.311994 177.311994 0 0 0-87.679997-173.599994 177.311994 177.311994 0 0 0-194.175994 10.879999l-10.975999-6.335999zM855.999989 336.960017a23.679999 23.679999 0 0 0-8.639999-32.319999 23.679999 23.679999 0 0 0-32.351999 8.672 23.679999 23.679999 0 0 0 8.639999 32.319999 23.679999 23.679999 0 0 0 32.351999-8.64zM680.191995 262.81602a23.679999 23.679999 0 0 1-10.656-13.28 189.343994 189.343994 0 0 1 35.935999-26.687999 23.679999 23.679999 0 0 1 7.04 31.295999 23.679999 23.679999 0 0 1-32.319999 8.64zM967.167986 428.480015a23.679999 23.679999 0 0 1-8.672-32.319999 23.679999 23.679999 0 0 1 30.719999-9.504 189.343994 189.343994 0 0 1-5.28 44.479999 23.679999 23.679999 0 0 1-16.767999-2.656zM825.27999 319.232018l20.48 11.84 59.167998-102.495997-20.48-11.84zM575.999998 224.000021a255.999992 255.999992 0 0 0-255.999992-255.999992 255.999992 255.999992 0 0 0-255.999992 255.999992 255.999992 255.999992 0 0 0 255.999992 255.999992 255.999992 255.999992 0 0 0 255.999992-255.999992zM48.000014 256.00002h543.999984c8.864 0 16-7.136 15.999999-16v-31.999999c0-8.864-7.136-16-15.999999-15.999999h-543.999984a15.968 15.968 0 0 0-15.999999 15.999999v31.999999c0 8.864 7.136 16 15.999999 16zM82.880013 128.000024A255.999992 255.999992 0 0 1 320.000006-31.999971a255.999992 255.999992 0 0 1 237.183993 159.999995h-17.184A239.743993 239.743993 0 0 0 320.000006-15.999972c-98.559997 0-183.039994 59.199998-219.999993 143.999996H82.880013zM352.000005 128.000024a31.999999 31.999999 0 0 0-31.999999-31.999999 31.999999 31.999999 0 0 0-31.999999 31.999999 31.999999 31.999999 0 0 0 31.999999 31.999999 31.999999 31.999999 0 0 0 31.999999-31.999999zM96.000013 160.000023a31.999999 31.999999 0 0 1-21.439999-8.32 255.999992 255.999992 0 0 1 24.063999-55.551998A31.999999 31.999999 0 0 1 128.000012 128.000024a31.999999 31.999999 0 0 1-31.999999 31.999999zM543.999999 160.000023a31.999999 31.999999 0 0 1-31.999999-31.999999 31.999999 31.999999 0 0 1 29.567999-31.871999 255.999992 255.999992 0 0 1 23.871999 55.615998A31.999999 31.999999 0 0 1 543.999999 160.000023zM304.000006 128.000024h31.999999v-159.999995h-31.999999zM691.263994 618.144009c-28.127999 0-51.231998-23.103999-51.231998-51.231999 0-28.159999 23.103999-51.263998 51.231998-51.263998 28.159999 0 51.263998 23.135999 51.263999 51.263998 0 28.127999-23.135999 51.231998-51.263999 51.231999z m0-31.999999c10.848 0 19.263999-8.416 19.264-19.232a19.007999 19.007999 0 0 0-19.264-19.263999 19.007999 19.007999 0 0 0-19.231999 19.263999c0 10.816 8.416 19.231999 19.231999 19.232zM911.903988 808.032003a16 16 0 0 1-14.016-8.384c-78.911998-141.215996-211.903993-241.023992-365.919989-274.975991C377.920004 490.688013 217.248009 525.760012 89.600013 621.280009a16 16 0 0 1-19.199999-25.6c134.975996-101.023997 305.27999-138.239996 468.447985-102.271996 163.135995 35.967999 303.743991 141.631996 386.975988 290.62399a16 16 0 0 1-13.919999 24zM334.208006 548.544011a51.327998 51.327998 0 0 1-60.799999-70.623998c8.32-18.207999 26.623999-29.887999 46.623999-29.887999a16 16 0 1 1 0 31.999999 19.199999 19.199999 0 0 0-14.624 31.807999 19.199999 19.199999 0 0 0 19.936 5.952 16 16 0 1 1 8.864 30.719999zM666.015995 607.968009a16 16 0 0 1-10.975999-4.8 51.519998 51.519998 0 0 1-4.48-67.519998c15.616-20.287999 44.159999-25.983999 66.335998-13.183999a16 16 0 1 1-16 27.743999 19.071999 19.071999 0 0 0-24.959999 4.96 19.103999 19.103999 0 0 0 1.728 25.375999 16 16 0 0 1-11.648 27.423999z"  horiz-adv-x="1024" />

    
    <glyph glyph-name="shoppingbaggift" unicode="&#58897;" d="M480.000001 801.856003c-70.591998 0-127.999996-57.343998-127.999996-127.935996v-175.935995a16 16 0 1 1 31.999999 0V673.920007c0 53.407998 42.559999 95.935997 95.999997 95.935997 53.503998 0 95.999997-42.559999 95.999997-95.935997v-175.935995a16 16 0 1 1 31.999999 0V673.920007a128.031996 128.031996 0 0 1-127.999996 127.935996zM256.000008 576.00001h127.999996c17.727999 0 31.999999-14.272 31.999999-31.999999v-575.999982c0-17.727999-14.272-31.999999-31.999999-31.999999H256.000008c-17.727999 0-31.999999 14.272-31.999999 31.999999V544.000011c0 17.727999 14.272 31.999999 31.999999 31.999999zM320.000006 576.00001h63.999998v-31.999999h-63.999998zM248.000008 576.00001a23.935999 23.935999 0 0 1-23.999999-23.999999c0-26.591999 21.407999-47.999999 47.999998-47.999999s47.999999 21.407999 47.999999 47.999999V576.00001H248.000008zM354.272005 576.00001H765.759992c18.975999 0 34.271999-14.272 34.271999-31.999999v-575.999982c0-17.727999-15.296-31.999999-34.271999-31.999999H354.240005C335.296006-63.99997 320.000006-49.72797 320.000006-31.999971V544.000011c0 17.727999 15.296 31.999999 34.271999 31.999999zM496 496.000012a31.999999 31.999999 0 0 0-31.999999-31.999999 31.999999 31.999999 0 0 0-31.999999 31.999999 31.999999 31.999999 0 0 0 31.999999 31.999999 31.999999 31.999999 0 0 0 31.999999-31.999999zM719.999994 496.000012a31.999999 31.999999 0 0 0-31.999999-31.999999 31.999999 31.999999 0 0 0-31.999999 31.999999 31.999999 31.999999 0 0 0 31.999999 31.999999 31.999999 31.999999 0 0 0 31.999999-31.999999zM575.999998 801.856003c-70.591998 0-127.999996-57.343998-127.999996-127.935996v-175.935995a16 16 0 1 1 31.999999 0V673.920007c0 53.407998 42.559999 95.935997 95.999997 95.935997 53.503998 0 95.999997-42.559999 95.999997-95.935997v-175.935995a16 16 0 1 1 31.999999 0V673.920007a128.031996 128.031996 0 0 1-127.999996 127.935996zM575.775998 398.144016a16 16 0 0 1-15.744-16.16v-333.69599a16 16 0 1 1 31.999999 0V381.984016a16 16 0 0 1-16.255999 16.16zM537.823999 367.104017a16 16 0 0 1-8.864-29.376l38.079999-25.695999a16 16 0 0 1 17.92 0l38.079999 25.695999a16 16 0 1 1-17.92 26.496l-29.119999-19.616-29.119999 19.616a16 16 0 0 1-9.056 2.88zM575.903998 127.712024a16 16 0 0 1-8.864-2.688l-38.079999-25.727999a16 16 0 1 1 17.92-26.527999l29.119999 19.711999 29.119999-19.711999a16 16 0 1 1 17.92 26.527999l-38.079999 25.727999a16 16 0 0 1-9.056 2.688zM718.975994 314.560018a16 16 0 0 1-7.136-2.24l-287.743991-166.847995a16 16 0 1 1 16.063999-27.679999l287.743991 166.815995a16 16 0 0 1-8.959999 29.919999zM430.976003 314.720018a16 16 0 0 1-6.88-29.951999l287.743991-166.847995a16 16 0 0 1 16.063999 27.679999l-287.743991 166.879995a16 16 0 0 1-9.183999 2.24zM671.263995 333.856018a16 16 0 0 1-15.232-15.072l-3.327999-45.759999a16 16 0 0 1 8.991999-15.551999l41.375999-19.999999a16 16 0 1 1 13.952 28.735999l-31.551999 15.327999 2.496 34.943999a16 16 0 0 1-16.704 17.376zM441.216002 201.280022a16 16 0 0 1-6.24-30.495999l31.615999-15.328-2.496-34.911999a16 16 0 1 1 31.872-2.304l3.295999 45.759999a16 16 0 0 1-8.959999 15.551999l-41.407999 20.064a16 16 0 0 1-7.68 1.696zM710.335994 201.280022a16 16 0 0 1-7.264-1.696l-41.375999-20.064a16 16 0 0 1-8.959999-15.551999l3.295999-45.759999a16 16 0 1 1 31.936 2.304l-2.496 34.943999 31.551999 15.296a16 16 0 0 1-6.688 30.495999zM480.224001 333.856018a16 16 0 0 1-16.128-17.376l2.496-34.943999-31.615999-15.327999a16 16 0 1 1 13.92-28.735999l41.375999 19.999999a16 16 0 0 1 8.991999 15.551999l-3.295999 45.759999a16 16 0 0 1-15.744 15.04z"  horiz-adv-x="1024" />

    
    <glyph glyph-name="holybiblechrist" unicode="&#58898;" d="M257.888008 768.000004C239.104009 768.000004 224.000009 753.728004 224.000009 736.000005v-703.999978c0-35.455999 28.543999-63.999998 63.999998-63.999998h495.999985a16 16 0 0 1 15.999999 15.999999 16 16 0 0 1-15.999999 16H288.000007c-17.727999 0-31.999999 14.272-31.999999 31.999999s14.272 31.999999 31.999999 31.999999H783.999992a16 16 0 0 1 15.999999 15.999999V736.000005c0 17.727999-15.104 31.999999-33.887999 31.999999H257.920008zM256.000008 768.000004c-17.727999 0-31.999999-14.272-31.999999-31.999999v-639.99998c0-17.727999 14.272-31.999999 31.999999-31.999999h63.999998V768.000004H256.000008zM288.000007 64.000026h495.999985v-63.999998H288.000007c-17.727999 0-31.999999 14.272-31.999999 31.999999s14.272 31.999999 31.999999 31.999999zM480.000001 592.000009h63.999998v-319.99999h-63.999998zM607.999997 528.000011v-63.999998h-191.999994v63.999998z"  horiz-adv-x="1024" />

    
    <glyph glyph-name="santabaggiftpr" unicode="&#58899;" d="M384.000004 768.000004c-17.727999 0-40.479999-16.863999-31.999999-33.183999l31.999999-61.631998c8.48-16.319999 14.272-33.183999 31.999999-33.183999h191.999994c17.727999 0 23.519999 16.863999 31.999999 33.183999l31.999999 61.631998C680.479995 751.136005 657.727995 768.000004 639.999996 768.000004h-47.999998a31.999999 31.999999 0 0 1-31.999999-31.999999 31.999999 31.999999 0 0 1-31.999999 31.999999H384.000004zM430.976003 720.224005a16 16 0 0 1-14.528-20.159999l15.999999-63.999998a16 16 0 1 1 31.072 7.84l-16 63.999998a16 16 0 0 1-16.543999 12.319999zM511.776 720.224005A16 16 0 0 1 496 704.000006v-63.999998a16 16 0 1 1 32 0v63.999998a16 16 0 0 1-16.256 16.191999zM592.511997 720.224005a16 16 0 0 1-16.063999-12.319999l-16-63.999998a16 16 0 1 1 31.072-7.808l15.999999 63.999998a16 16 0 0 1-15.008 20.127999zM831.99999 225.504021C831.99999 118.304024 723.519993 32.000027 588.799998 32.000027h-153.599996C300.480007 32.000027 192.00001 118.304024 192.00001 225.504021V256.00002c0 212.063993 143.263996 383.999988 319.99999 383.999988s319.99999-171.935995 319.99999-383.999988zM384.000004 672.000007h255.999992c17.727999 0 31.999999-14.272 31.999999-31.999999s-14.272-31.999999-31.999999-31.999999h-255.999992c-17.727999 0-31.999999 14.272-31.999999 31.999999s14.272 31.999999 31.999999 31.999999zM595.967997 192.000022l-84.095997 44.319999-84.159997-44.159999 16.159999 93.663997-67.967998 66.399998 94.079997 13.568 42.111999 85.183997 41.983999-85.279997 94.015997-13.76-68.095998-66.239998z"  horiz-adv-x="1024" />

    
    <glyph glyph-name="candleflamedeco" unicode="&#58901;" d="M639.999996-31.967971v-31.999999h159.999995v31.999999h-159.999995zM447.776002 487.968013a16 16 0 0 1-15.744-16.192v-127.999996a16 16 0 1 1 31.999999 0v127.999996a16 16 0 0 1-16.255999 16.192zM591.999998 424.000015c-8.832 0-16-7.136-16-16s-7.104-16-15.999999-15.999999H320.000006a15.968 15.968 0 0 0-16 15.999999H288.000007V-95.999969c0-17.727999 14.304-31.999999 31.999999-31.999999h255.999992c17.759999 0 31.999999 14.272 31.999999 31.999999V408.000015c0 8.864-7.104 16-15.999999 16zM288.000007 440.000014c8.896 0 16-7.136 15.999999-15.999999v-127.999996a15.968 15.968 0 1 0-31.999999 0v127.999996c0 8.864 7.168 16 16 15.999999zM304.000006 408.000015v-95.999997a15.968 15.968 0 1 0 31.999999 0v79.999998H320.000006a15.968 15.968 0 0 0-16 15.999999zM368.000004 392.000016v-111.999997a15.968 15.968 0 1 0-31.999999 0v111.999997zM352.000005 232.000021c8.896 0 16-7.136 15.999999-16v-31.999999a15.968 15.968 0 1 0-31.999999 0v31.999999c0 8.864 7.168 16 16 16zM368.000004 392.000016v-31.999999a15.968 15.968 0 1 0 31.999999 0v31.999999h-31.999999zM432.000002 392.000016v-47.999999a15.968 15.968 0 1 0-31.999999 0v47.999999zM416.000003 296.000019a15.968 15.968 0 1 0-16-16c0 8.864 7.168 16 16 16zM288.000007 248.00002c8.896 0 16-7.136 15.999999-15.999999v-16a15.968 15.968 0 1 0-31.999999 0v16c0 8.864 7.168 16 16 15.999999zM545.759999 558.240011c0-87.999997-69.503998-87.999997-97.727997-136.895996-29.343999 48.895998-97.759997 48.895998-97.759997 136.895996C350.272005 611.328009 418.688003 704.928006 448.000002 896c19.519999-191.071994 97.727997-284.799991 97.727997-337.759989zM445.952002 753.856004c-17.279999-117.375996-66.367998-136.959996-66.367998-196.223993 0-58.047998 39.103999-58.047998 68.447998-87.359998 29.343999 29.311999 68.415998 29.311999 68.415998 87.167998 0 69.247998-48.863998 79.039998-70.495998 196.415993zM447.840002 654.880008c-9.6-57.503998-38.847999-67.295998-38.847999-98.303997-0.16-20.703999 9.696-27.647999 39.039999-56.991999 29.343999 29.343999 39.679999 36.735999 39.103999 57.055999v0.768c0 30.175999-29.343999 39.935999-39.295999 97.439997zM511.456 658.176007a191.999994 191.999994 0 0 0-134.815996-172.063994c22.495999-23.519999 53.855998-35.519999 71.359998-64.767998 28.255999 48.895998 97.759997 48.895998 97.759997 136.895996 0 23.167999-15.808 56.383998-34.303999 99.935996zM503.2 611.904009a191.999994 191.999994 0 0 0-94.495997-112.735997c12.416-8.8 26.591999-16.223999 39.327999-28.927999 29.311999 29.311999 68.415998 29.311999 68.415998 87.167998 0 22.591999-5.504 38.783999-13.248 54.495998zM484.704001 571.04001a191.999994 191.999994 0 0 0-51.615999-56.575998l14.944-14.848c29.311999 29.311999 39.679999 36.703999 39.103999 57.055999v0.768c0 5.024-1.024 9.408-2.432 13.631999zM176.00001 0.000028a16 16 0 0 1-13.855999-23.999999l65.087998-97.599997 12.576-6.4h403.519987v127.999996zM831.99999 0.032028c-35.135999 0-63.999998-28.831999-63.999998-63.999998s28.863999-63.999998 63.999998-63.999998c35.199999 0 63.999998 28.831999 63.999998 63.999998s-28.799999 63.999998-63.999998 63.999998z m0-31.999999c17.887999 0 31.999999-14.144 31.999999-31.999999s-14.112-31.999999-31.999999-31.999999c-17.823999 0-31.999999 14.144-31.999999 31.999999s14.176 31.999999 31.999999 31.999999zM575.999998 0.000028h95.999997c17.759999 0 31.999999-14.272 31.999999-31.999999v-63.999998c0-17.727999-14.24-31.999999-31.999999-31.999999h-95.999997c-17.695999 0-31.999999 14.272-31.999999 31.999999v63.999998c0 17.727999 14.304 31.999999 31.999999 31.999999zM559.999998-63.99997h127.999997c8.896 0 16-7.136 15.999999-16v-31.999999c0-8.864-7.104-16-15.999999-15.999999h-127.999997a15.968 15.968 0 0 0-15.999999 15.999999v31.999999c0 8.864 7.168 16 15.999999 16zM240.000008-127.999968a16 16 0 0 0-14.239999 8.736l14.271999 7.263999z"  horiz-adv-x="1024" />

    
    <glyph glyph-name="candleflamedeco1" unicode="&#58902;" d="M527.776 487.968013a16 16 0 0 1-15.744-16.192v-127.999996a16 16 0 1 1 31.999999 0v127.999996a16 16 0 0 1-16.255999 16.192zM671.999995 424.000015c-8.864 0-16-7.136-15.999999-16s-7.136-16-16-15.999999h-239.999993a15.968 15.968 0 0 0-15.999999 15.999999h-16V-95.999969c0-17.727999 14.272-31.999999 31.999999-31.999999h255.999993c17.727999 0 31.999999 14.272 31.999999 31.999999V408.000015c0 8.864-7.136 16-16 16zM368.000004 440.000014c8.864 0 16-7.136 16-15.999999v-127.999996a15.968 15.968 0 1 0-31.999999 0v127.999996c0 8.864 7.136 16 15.999999 15.999999zM384.000004 408.000015v-95.999997a15.968 15.968 0 1 0 31.999999 0v79.999998h-16a15.968 15.968 0 0 0-15.999999 15.999999zM448.000002 392.000016v-111.999997a15.968 15.968 0 1 0-31.999999 0v111.999997zM432.000002 232.000021c8.864 0 16-7.136 16-16v-31.999999a15.968 15.968 0 1 0-31.999999 0v31.999999c0 8.864 7.136 16 15.999999 16zM448.000002 392.000016v-31.999999a15.968 15.968 0 1 0 31.999999 0v31.999999h-31.999999zM512 392.000016v-47.999999a15.968 15.968 0 1 0-31.999999 0v47.999999zM496 296.000019a15.968 15.968 0 1 0-15.999999-16c0 8.864 7.136 16 15.999999 16zM368.000004 248.00002c8.864 0 16-7.136 16-15.999999v-16a15.968 15.968 0 1 0-31.999999 0v16c0 8.864 7.136 16 15.999999 15.999999zM625.759996 558.240011c0-87.999997-69.535998-87.999997-97.759997-136.895996-29.311999 48.895998-97.759997 48.895998-97.759996 136.895996 0 53.087998 68.447998 146.687995 97.759996 337.759989 19.551999-191.071994 97.759997-284.799991 97.759997-337.759989zM525.952 753.856004c-17.279999-117.375996-66.367998-136.959996-66.367998-196.223993 0-58.047998 39.103999-58.047998 68.415998-87.359998 29.343999 29.311999 68.447998 29.311999 68.447997 87.167998 0 69.247998-48.895998 79.039998-70.495997 196.415993zM527.808 654.880008c-9.6-57.503998-38.815999-67.295998-38.815999-98.303997-0.16-20.703999 9.696-27.647999 39.039998-56.991999 29.311999 29.343999 39.647999 36.735999 39.103999 57.055999l-0.032 0.384v0.384c0 30.175999-29.311999 39.935999-39.295998 97.439997zM591.423998 658.176007a191.999994 191.999994 0 0 0-134.783996-172.063994c22.495999-23.519999 53.823998-35.519999 71.359998-64.767998 28.223999 48.895998 97.759997 48.895998 97.759996 136.895996 0 23.167999-15.84 56.383998-34.335998 99.935996zM583.199998 611.904009A191.999994 191.999994 0 0 0 488.640001 499.200012c12.416-8.8 26.591999-16.223999 39.327999-28.927999 29.343999 29.311999 68.447998 29.311999 68.447997 87.167998 0 22.591999-5.504 38.783999-13.247999 54.495998zM564.671998 571.04001a191.999994 191.999994 0 0 0-51.615998-56.575998l14.944-14.848c29.343999 29.311999 39.679999 36.703999 39.135998 57.055999v0.768c0 5.024-1.056 9.408-2.464 13.631999z"  horiz-adv-x="1024" />

    
    <glyph glyph-name="fangzi_" unicode="&#58883;" d="M964.096-13.824V420.352l-399.872 199.68V885.76L64 635.904v-649.728H14.336v-99.84H1013.76v99.84h-49.664zM364.032 35.84H264.192v99.84h99.84V35.84z m0 200.192H264.192v99.84h99.84v-99.84z m0 199.68H264.192V535.552h99.84v-99.84z m399.872-399.872h-99.84v99.84h99.84V35.84z m0 200.192h-99.84v99.84h99.84v-99.84z"  horiz-adv-x="1024" />

    
    <glyph glyph-name="anli" unicode="&#58885;" d="M398.222222 839.111111v-341.333333H56.888889V839.111111h341.333333m0 56.888889H56.888889C28.444444 896 0 873.244444 0 839.111111v-341.333333c0-34.133333 28.444444-56.888889 56.888889-56.888889h341.333333c28.444444 0 56.888889 22.755556 56.888889 56.888889V839.111111c0 34.133333-28.444444 56.888889-56.888889 56.888889zM967.111111 839.111111v-341.333333h-341.333333V839.111111h341.333333m0 56.888889h-341.333333c-28.444444 0-56.888889-22.755556-56.888889-56.888889v-341.333333c0-34.133333 28.444444-56.888889 56.888889-56.888889h341.333333c34.133333 0 56.888889 22.755556 56.888889 56.888889V839.111111c0 34.133333-22.755556 56.888889-56.888889 56.888889zM398.222222 270.222222v-341.333333H56.888889v341.333333h341.333333m0 56.888889H56.888889c-28.444444 0-56.888889-22.755556-56.888889-56.888889v-341.333333c0-34.133333 28.444444-56.888889 56.888889-56.888889h341.333333c28.444444 0 56.888889 22.755556 56.888889 56.888889v341.333333c0 34.133333-28.444444 56.888889-56.888889 56.888889zM967.111111 270.222222v-341.333333h-341.333333v341.333333h341.333333m0 56.888889h-341.333333c-28.444444 0-56.888889-22.755556-56.888889-56.888889v-341.333333c0-34.133333 28.444444-56.888889 56.888889-56.888889h341.333333c34.133333 0 56.888889 22.755556 56.888889 56.888889v341.333333c0 34.133333-22.755556 56.888889-56.888889 56.888889z"  horiz-adv-x="1024" />

    
    <glyph glyph-name="haixianshuichan" unicode="&#58886;" d="M425.05088 19.199999990000038c-12.8 6.4-25.6 12.8-38.4 32-12.8 25.6-12.8 57.6-6.4 76.8v25.6 19.2l-6.4 6.4-12.8 6.4c-25.6 12.8-51.2 25.6-70.4 38.4-38.4 19.2-70.4 44.8-102.4 70.4-6.4-6.4-12.8-12.8-19.2-25.6-12.8-19.2-32-38.4-57.6-57.6-19.2-12.8-57.6-38.4-83.2-25.6-12.8 19.2-25.6 32-25.6 44.8-6.4 38.4 0 70.4 6.4 102.4 6.4 19.2 6.4 38.4 6.4 64 0 19.2 0 32-6.4 51.2 0 25.6-6.4 57.6 0 96 0 19.2 12.8 32 25.6 38.4 32 19.2 70.4 0 115.2-44.8 12.8-12.8 19.2-19.2 25.6-32l19.2-19.2c6.4 0 6.4 6.4 12.8 6.4 32 25.6 83.2 64 172.8 102.4 6.4 19.2 19.2 57.6 19.2 76.8l12.8 32c0 12.8 6.4 25.6 19.2 38.4 19.2 25.6 64 32 108.8 12.8 51.2-25.6 96-64 121.6-108.8 6.4-6.4 6.4-12.8 12.8-19.2h6.4c147.2-12.8 268.8-76.8 332.8-179.2 0-6.4 12.8-25.6 12.8-44.8s-12.8-38.4-12.8-44.8c-57.6-89.6-140.8-160-236.8-198.4-19.2-6.4-38.4 0-51.2 19.2-6.4 19.2 0 38.4 19.2 51.2 83.2 38.4 153.6 96 204.8 172.8 0 6.4 6.4 6.4 6.4 6.4-57.6 83.2-160 134.4-281.6 147.2-12.8 0-25.6 0-38.4 6.4-25.6 12.8-32 32-44.8 44.8-19.2 38.4-51.2 64-89.6 83.2-6.4 0-19.2 6.4-19.2 0v-6.4l-6.4-32c-25.6-96-32-115.2-57.6-121.6-89.6-32-134.4-70.4-166.4-96-19.2-19.2-38.4-32-64-32-12.8 0-25.6 12.8-32 19.2-19.2 12.8-25.6 25.6-38.4 38.4-6.4 6.4-12.8 19.2-19.2 25.6s-12.8 12.8-19.2 12.8c0-12.8 6.4-25.6 6.4-38.4 6.4-19.2 12.8-44.8 6.4-70.4 0-25.6-6.4-44.8-6.4-70.4 0-6.4 0-12.8-6.4-19.2 12.8 6.4 19.2 19.2 25.6 32 19.2 12.8 32 32 57.6 51.2 12.8 12.8 32 12.8 44.8 0 38.4-32 76.8-64 121.6-89.6 19.2-12.8 44.8-25.6 70.4-38.4 25.6-12.8 32-19.2 44.8-38.4 19.2-19.2 19.2-44.8 19.2-64v-70.4h6.4c44.8 19.2 76.8 51.2 115.2 96 12.8 19.2 38.4 19.2 51.2 6.4s19.2-38.4 6.4-51.2c-38.4-51.2-89.6-89.6-140.8-115.2-6.4 0-25.6-12.8-44.8-12.8-12.8 6.4-25.6 12.8-32 12.8zM738.65088 300.79999998999995c-51.2 0-96 44.8-96 96s44.8 96 96 96S834.65088 447.99999999 834.65088 396.79999999s-44.8-96-96-96m0 108.8c-12.8 0-19.2-6.4-19.2-19.2 0-19.2 38.4-19.2 38.4 0 0 12.8-6.4 19.2-19.2 19.2"  horiz-adv-x="1026" />

    
    <glyph glyph-name="guquan" unicode="&#58904;" d="M502.5 759.3h-28.2c-226 0-409.8-183.8-409.8-409.8s183.8-409.8 409.8-409.8 409.8 183.8 409.8 409.8v28.2H502.5V759.3z m323.8-438c-14.6-182.8-168.2-325.2-352.1-325.2-194.9 0-353.4 158.5-353.4 353.4 0 183.9 142.4 337.5 325.2 352.1v-380.3h380.3zM927 579.6c-20.2 47.7-49.2 90.5-86 127.3s-79.7 65.8-127.3 86c-49.4 21-101.7 31.6-155.6 31.6h-28.2v-428.7h428.7V424c-0.1 53.8-10.7 106.2-31.6 155.6zM586.2 452.2V766.7c167.3-13.3 301.2-147.2 314.6-314.6H586.2z"  horiz-adv-x="1024" />

    
    <glyph glyph-name="tubiaozhizuomoban" unicode="&#58951;" d="M1075.432275 578.537677l-85.308196 88.385083c-0.241324 0.241324-0.512814 0.407235-0.769221 0.633476a26.319449 26.319449 0 0 1-21.809698 11.568492h-96.439286c-0.54298 0.256407-1.010546 0.588228-1.568609 0.799387L314.023449 894.235315l-0.54298 0.135745c-0.603311 0.226242-1.206622 0.361987-1.825016 0.54298-0.467566 0.120662-0.920049 0.316738-1.387616 0.407235l-0.950215 0.196076-0.889884 0.150828c-0.558063 0.075414-1.131208 0.090497-1.704354 0.135745-0.558063 0.045248-1.116126 0.135745-1.674188 0.135745-0.180993 0-0.346904 0.060331-0.527897 0.060331-0.150828 0-0.286573-0.045248-0.437401-0.045248l-0.723973-0.015083c-0.573146-0.015083-1.116126-0.135745-1.659106-0.196076-0.633477-0.060331-1.236788-0.105579-1.870265-0.211159l-0.98038-0.180993a4.524834 4.524834 0 0 1-0.482649-0.120663c-0.573146-0.135745-1.131208-0.346904-1.689271-0.527897-0.603311-0.180993-1.206622-0.346904-1.794851-0.588228-0.301656-0.105579-0.618394-0.211159-0.920049-0.346904a11.176339 11.176339 0 0 1-0.437401-0.211159c-0.573146-0.256407-1.116126-0.603311-1.674188-0.92005-0.407235-0.226242-0.844636-0.361987-1.251871-0.603311l-0.37707-0.286573c-0.211159-0.150828-0.437401-0.256407-0.648559-0.407235l-0.573146-0.4374c-0.150828-0.105579-0.316738-0.180993-0.467566-0.301656L43.001002 703.679491H0v-193.753373h214.054793v23.725211c0.301656-0.015083 0.573146-0.090497 0.859718-0.090497h63.211925v-608.771107h-126.288105v-52.789725h691.666058v52.789725h-381.443469V533.560832h590.76227c1.010546 0 2.00601 0.196076 2.98639 0.301655 0.211159 0 0.392152-0.060331 0.588228-0.060331a26.394862 26.394862 0 0 1 19.034467 44.735521m-621.606552 100.587051l-85.368526 137.524774 356.466388-137.524774H453.825723z m-62.141047 0H330.916161V777.042126l60.768515-97.917398zM278.126436 816.332764v-137.208036h-63.211925c-0.286573 0-0.558063-0.075414-0.859718-0.090497v24.64526H130.149296l147.97714 112.653273z m-116.861368-253.616921H52.789725v88.173923h108.475343v-88.173923z m52.789725 23.544217v40.165439c0.301656-0.015083 0.573146-0.090497 0.859718-0.090496h741.001827l38.59683-39.984446H214.914511c-0.286573 0-0.558063-0.075414-0.859718-0.090497m116.861368-353.841984l65.987156-56.952572-65.987156-56.937489v113.890061z m78.370117 2.096506l-65.564838 56.575502 65.564838 56.575503v-113.151005z m0-118.083073v-122.230837l-70.828728 61.115418 70.828728 61.115419z m-78.370117 233.330584v113.905143l66.002239-56.967654-66.002239-56.937489z m0-357.657928l78.023213-67.31444H330.916161v67.31444z m78.370117 473.659577l-78.370117 67.631179v0.165911h78.370117v-67.79709zM868.752961 488.49349l-28.506452-165.322336h-33.076533l-24.584929 165.322336h-45.746067l24.826253-166.92111c-3.469039-1.327285-6.62134-3.393625-9.109998-6.259353-4.283509-4.977317-6.214105-11.583574-5.248807-18.099335l13.770577-92.759088a22.624168 22.624168 0 0 1 22.382843-19.305956h16.847464v-26.621104c0-0.256407 0.060331-0.482649 0.090496-0.739056-0.030166-0.256407-0.090497-0.482649-0.090496-0.739057a22.624168 22.624168 0 0 1 22.624167-22.624167c13.800742 0 25.037412-11.23667 25.037413-25.037413a25.052495 25.052495 0 0 0-50.074825 0 22.624168 22.624168 0 1 1-45.248336 0c0-38.747658 31.53809-70.285748 70.285748-70.285748s70.285748 31.53809 70.285748 70.285748c0 30.799034-20.045013 56.756496-47.66158 66.228481v9.532316h19.351205c11.100925 0 20.557827 8.039121 22.322512 19.004301l15.067696 92.774171a22.684499 22.684499 0 0 1-5.097979 18.29541 22.669416 22.669416 0 0 1-11.221587 7.043657l28.657279 166.242385h-45.881812z m-23.076652-258.096507h-42.714428l-7.058741 47.525836h57.495552l-7.722383-47.525836z"  horiz-adv-x="1082" />

    
    <glyph glyph-name="qiyeguanli" unicode="&#58926;" d="M986.96609185 471.09587752L694.5298963 802.75658272c-6.34323753 7.24941431-14.23992098 11.13302914-23.04278124 11.13302913-8.80286025 0-17.21735902-3.88361482-23.04278123-11.13302913l-42.71976297-48.67463902-30.93946469-34.95253334c-1.94180741-2.20071506-3.88361482-3.88361482-5.43706074-6.08432986l-4.40143012-5.04869927c-22.52496592 26.02021925-45.56774717 52.04043852-73.14141234 82.46208791l-9.32067556 10.48576c-22.52496592 25.50240395-46.08556247 51.5226232-68.61052839 78.06065777-5.82542222 7.24941431-14.7577363 11.13302914-24.07841185 10.48576-9.32067555 0-18.12353581-4.40143013-24.07841186-11.65084444L34.31537778 471.09587752c-8.80286025-10.48576-11.26248297-26.53803457-5.82542223-39.87177876 5.43706075-13.33374419 17.21735902-22.13660445 29.90383408-22.13660445H137.8784395c6.34323753 0 11.26248297-5.56651457 11.26248297-12.68647506l0.51781531-325.05856c0.51781531-84.14498765 61.36111408-152.36715457 135.4087032-152.36715456h620.99000889v2.71853037h2.45962272v70.29342814H284.93798717c-38.31833283 0-70.16397431 35.47034864-70.16397434 78.70792693l-0.5178153 325.05856c0 47.63900839-34.30526419 85.82788741-76.50721184 85.82788739h-4.91924544l258.00147753 316.77351506c17.21735902-19.41807408 34.30526419-38.70669431 54.88842272-61.49056789l3.88361481-4.40143012 68.61052839-77.54284248c-2.45962272-2.71853037-4.91924543-5.56651457-7.89668345-8.28504493l-1.94180742-2.20071507c-12.81592889-12.68647506-25.50240395-26.53803457-36.76488691-43.23757826-22.00715061-33.26963358-27.44421136-76.37775803-13.72210567-113.01319111 10.74466765-28.73874963 31.45728-50.35753876 57.86586073-61.49056791 29.90383408-12.16865975 65.24472889-9.45012939 94.24238619 7.76722963 34.8230795 20.45370469 55.40623803 63.17346765 52.9466153 111.33029136-2.45962272 48.67463902-27.96202667 84.14498765-50.4869926 109.64739161l8.80286026 9.96794468 42.71976296 48.15682371 8.28504494 9.45012938 214.37553778-243.1142874c-41.16631703-4.91924543-72.62359703-44.27320889-72.62359705-91.91221728v-211.00973828c0-16.05227457-11.26248297-28.73874963-25.50240394-28.73874964H570.38367605v-73.65922764h216.31734519c50.09863111 0 91.26494815 45.95610864 91.26494815 103.04524642V388.5043358c0 9.96794469 7.37886815 18.25298963 16.18172839 18.25298963h69.1283437c13.20429037 0 24.98458864 8.80286025 30.42164938 22.65441975 5.43706075 15.01664395 2.58907653 31.06891852-6.73159901 41.68413234zM518.47269136 513.29782518c-4.78979161 11.65084445-2.58907653 26.53803457 5.82542222 38.18887901 8.54395259 11.13302914 20.71261235 22.26605827 31.32782617 31.84564149 4.2719763 3.75416098 9.5795832 8.54395259 14.36937482 13.20429037 16.44063605-16.44063605 33.39908741-36.11761778 34.43471802-58.90149136 0.51781531-6.86105283 0-29.64492642-19.02971259-39.74232494-14.36937482-7.37886815-31.32782617-8.54395259-45.04993185-3.75416099-10.74466765 2.71853037-18.12353581 9.5795832-21.87769679 19.15916642z m0 0"  horiz-adv-x="1024" />

    
    <glyph glyph-name="tongyong" unicode="&#58915;" d="M512 864L32 624v-483.2L512-96l480 240v480L512 864zM76.8 169.6V598.4L512 812.8l435.2-214.4v-425.6L512-44.8 76.8 169.6zM512-105.6L22.4 137.6V630.4L512 873.6l489.6-243.2v-496L512-105.6zM41.6 147.2L512-86.4l470.4 233.6V620.8L512 854.4 41.6 620.8v-473.6zM512-54.4L67.2 166.4V601.6L512 822.4l444.8-220.8v-438.4L512-54.4zM86.4 176L512-35.2l425.6 211.2v416L512 803.2 86.4 592v-416zM496 435.2L83.2 640 64 598.4 496 384 960 598.4 940.8 640zM496 374.4L51.2 595.2l28.8 57.6 419.2-208 448 208 28.8-57.6-480-220.8zM76.8 604.8l419.2-208 451.2 208-9.6 22.4-438.4-204.8L89.6 627.2l-12.8-22.4zM480-64h32V416h-32zM521.6-73.6h-51.2V425.6h51.2v-499.2z m-32 19.2h12.8V406.4h-12.8v-460.8z"  horiz-adv-x="1024" />

    
    <glyph glyph-name="wenyuchuanmei" unicode="&#58887;" d="M518.575866-91.125394A493.19198 493.19198 0 0 0 491.35922 895.258566a493.19198 493.19198 0 0 0 395.080357-820.669699 489.899644 489.899644 0 0 0-339.330129-164.836305c-9.65752-0.438978-19.095551-0.877956-28.533582-0.877956zM519.673312 829.41184h-24.582778A427.345254 427.345254 0 1 1 945.701631 426.210385 427.345254 427.345254 0 0 1 519.673312 829.41184zM380.297741 652.064657A65.846726 65.846726 0 0 0 428.80483 544.076026a65.846726 65.846726 0 0 0-44.995263-21.948909h-3.731315a65.846726 65.846726 0 0 0-2.853358 129.718051h3.731315m0 65.846726h-8.121097A131.693453 131.693453 0 0 1 380.078252 456.28039h7.462629a131.693453 131.693453 0 0 1-7.24314 261.630993zM414.099061 255.447875a65.846726 65.846726 0 0 0 3.731314-130.157029h-3.950803a65.846726 65.846726 0 0 0-3.511826 129.93754h3.731315m0 65.846726h-7.462629a131.693453 131.693453 0 0 1 7.24314-261.630992H421.122712a131.693453 131.693453 0 0 1-7.462629 261.630992zM745.966561 465.93791a65.846726 65.846726 0 0 0 4.389782-130.157029h-3.731314a65.846726 65.846726 0 0 0-48.2876 108.42761 63.651835 63.651835 0 0 0 43.897818 21.948908h3.731314m0 65.846727h-7.462629a131.693453 131.693453 0 0 1 7.24314-261.630993h7.462629a131.693453 131.693453 0 0 1-7.24314 261.630993zM882.049796-127.999561a43.897818 43.897818 0 0 0-28.753071 10.535476c-59.262054 51.360447-148.374623 43.897818-212.465437 30.289494a43.897818 43.897818 0 1 0-19.534528 85.600744c120.499509 27.216647 219.489088 10.315987 289.506106-49.385044a43.897818 43.897818 0 0 0 4.389782-61.895923 43.897818 43.897818 0 0 0-33.142852-15.144747zM519.234334 402.066586m-36.654678 0a36.654678 36.654678 0 1 1 73.309355 0 36.654678 36.654678 0 1 1-73.309355 0Z"  horiz-adv-x="1024" />

    
    <glyph glyph-name="nav_promoter" unicode="&#58986;" d="M243.4844448 321.64977812999996c-2.95822187-8.96568853-4.55111147-18.56853333-4.55111147-28.53546666v-90.97671147a91.02222187 91.02222187 0 0 1 91.02222187-91.02222187h91.02222293a91.02222187 91.02222187 0 0 1 91.02222187 91.02222187v90.97671147c0 10.0124448-1.59288853 19.56977813-4.55111147 28.58097706 135.8051552-36.31786667 232.10666667-127.11253333 232.10666667-233.33546666V19.911111470000037a91.02222187 91.02222187 0 0 0-91.02222187-91.02222294H102.4a91.02222187 91.02222187 0 0 0-91.02222187 91.02222294v68.4487104c0 106.22293333 96.30151147 197.0176 232.10666667 233.33546666z m620.1344-302.51235626A90.56711147 90.56711147 0 0 1 876.08888853 65.19466666999995V133.68888852999999c0 100.1244448-90.9312 186.5955552-222.27626666 226.59982294C706.3779552 410.35093333 739.5555552 483.9424 739.5555552 566.0444448000001c0 49.5616-12.1059552 96.0284448-33.2231104 136.07822187C801.13208853 695.02293333 876.08888853 606.2307552 876.08888853 497.77777813c0-70.76977813-31.85777813-133.16551147-80.41813333-169.9384896 126.11128853-27.30666667 216.95146667-103.90186667 216.95146667-194.1504v-69.0403552a45.51111147 45.51111147 0 0 0-45.5111104-45.51111146h-103.49226667zM375.46666667 293.11431146999996a45.51111147 45.51111147 0 0 0 45.51111146-45.51111147v-45.51111147a45.51111147 45.51111147 0 1 0-91.02222293 0v45.51111147a45.51111147 45.51111147 0 0 0 45.51111147 45.51111147z m0 45.5111104c-125.65617813 0-227.5555552 112.0483552-227.5555552 250.2200896C147.91111147 727.0627552 249.81048853 839.11111147 375.46666667 839.11111147s227.5555552-112.0483552 227.5555552-250.2656c0-138.17173333-101.89937813-250.22008853-227.5555552-250.2200896z"  horiz-adv-x="1024" />

    
    <glyph glyph-name="chengjiao" unicode="&#58882;" d="M931.707 27.649H853.75v36.85c0 9.742-3.977 18.707-10.501 25.23-6.528 6.521-15.485 10.609-25.271 10.609h-15.913v36.704c0 9.818-4.163 18.921-10.576 25.237-6.452 6.522-15.521 10.533-25.373 10.533h-309.94c-9.931 0-18.711-4.011-25.309-10.533-6.412-6.453-10.571-15.419-10.571-25.237v-36.704h-15.914c-9.855 0-18.924-4.088-25.271-10.609l-1.613-1.721c-5.483-6.308-8.89-14.551-8.89-23.51v-36.85h-77.959c-18.604 0-33.62-14.985-33.62-33.624 0-18.638 15.017-33.623 33.62-33.623h641.058c18.536 0 33.549 14.985 33.549 33.623 0 18.64-15.013 33.625-33.549 33.625z m-118.206 0H408.827v32.328h31.687c11.111 0 20.179 8.89 20.179 20.071V132.53h300.904v-52.481c0-11.182 9.144-20.071 20.248-20.071h31.656v-32.329zM443.2 383.505a65.26 65.26 0 0 1-4.518-23.806c0-17.2 6.599-34.408 19.643-47.596l22.113-22.156 1.26-1.072c12.9-12.397 29.604-18.493 46.307-18.493 16.99 0 34.338 6.453 47.207 19.565h0.18L706.29 420.919l1.221 1.073c12.33 13.052 18.35 29.758 18.35 46.455 0 17.206-6.521 34.193-19.57 47.245h-0.072l0.072 0.359-22.078 22.01c-13.049 12.975-30.252 19.498-47.566 19.498-8.136 0-16.306-1.432-24.012-4.376L471.446 694.336c3.082 7.74 4.548 15.915 4.548 24.012 0 17.207-6.702 34.415-19.746 47.604l-22.116 22.01c-13.048 13.044-30.214 19.636-47.387 19.636-17.204 0-34.518-6.592-47.563-19.636L208.28 656.991l-1.107-1.155c-12.261-12.9-18.46-29.751-18.46-46.091 0-17.345 6.523-34.552 19.567-47.673l22.082-22.078 1.29-1.08c13.046-12.467 29.641-18.563 46.275-18.563 8.133 0 16.237 1.582 24.013 4.444l14.015-14.117L82.044 276.615c-15.522-15.48-23.3-35.916-23.3-56.272 0-20.647 7.777-41.075 23.3-56.563 15.662-15.556 36.093-23.364 56.562-23.364 20.499 0 40.86 7.809 56.451 23.364L428.9 397.692l14.3-14.187z m174.484 126.024c5.271 5.159 12.116 7.808 18.962 7.808 6.991 0 13.836-2.648 19.072-7.808l22.112-22.155c5.16-5.159 7.778-12.253 7.778-18.927 0-6.66-2.364-13.183-6.987-18.274l-0.791-0.79-130.901-130.979a26.943 26.943 0 0 0-18.924-7.809c-6.522 0-13.227 2.29-18.136 7.093l-0.898 0.716-22.185 22.153c-5.088 5.092-7.778 12.117-7.778 19.142 0 6.386 2.367 12.839 6.99 17.998l0.788 0.931 130.898 130.901z m-37.668 19.209L467.467 416.117 334.559 549.165 447.18 661.718l132.836-132.98z m-283.167 39.72c-5.088-5.161-11.896-7.748-18.921-7.748-6.525 0-13.192 2.223-18.14 7.032l-0.859 0.716-22.186 22.291c-5.091 4.946-7.743 11.972-7.743 18.996 0 6.453 2.329 12.9 6.953 18.06l0.79 0.867 130.899 130.827c5.266 5.166 12.078 7.739 19.103 7.739 6.812 0 13.767-2.573 18.927-7.739l22.112-22.079c5.165-5.16 7.782-12.191 7.782-19.072 0-6.453-2.295-13.044-6.846-18.204l-0.937-0.716-130.934-130.97zM166.597 192.235c-7.633-7.595-17.885-11.461-27.991-11.461-10.183 0-20.469 3.866-27.996 11.461-7.637 7.679-11.545 17.93-11.545 28.107 0 10.105 3.908 20.22 11.545 27.815l233.987 233.98 55.806-55.84-233.806-234.062zM466 210.375v-9.75c0-8.076 5.373-14.625 12-14.625h272c6.627 0 12 6.549 12 14.625v9.75c0 8.076-5.373 14.625-12 14.625H478c-6.627 0-12-6.549-12-14.625z"  horiz-adv-x="1024" />

    
    <glyph glyph-name="guanli" unicode="&#58900;" d="M567.6 716.7c22.1 0 40-17.9 40-40v-58c0-23.3 19.2-40 40-40 6.7 0 13.5 1.7 19.9 5.4l50.2 29c6.3 3.6 13.2 5.4 19.9 5.4 13.8 0 27.2-7.2 34.6-20l55.6-96.3c11-19.1 4.5-43.6-14.6-54.6l-50.2-29c-26.6-15.4-26.6-53.8 0-69.2l50.2-29c19.1-11 25.7-35.5 14.6-54.6l-55.6-96.3c-7.4-12.8-20.8-20-34.6-20-6.8 0-13.6 1.7-19.9 5.4l-50.2 29c-6.4 3.7-13.3 5.4-19.9 5.4-20.9 0-40-16.7-40-40v-58c0-22.1-17.9-40-40-40H456.4c-22.1 0-40 17.9-40 40v58c0 23.3-19.1 40-40 40-6.7 0-13.5-1.7-19.9-5.4l-50.2-29c-6.3-3.6-13.2-5.4-19.9-5.4-13.8 0-27.2 7.2-34.6 20l-55.6 96.3c-11 19.1-4.5 43.6 14.6 54.6l50.2 29c26.6 15.4 26.6 53.8 0 69.2l-50.2 29c-19.1 11-25.7 35.5-14.6 54.6l55.6 96.3c7.4 12.8 20.8 20 34.6 20 6.8 0 13.6-1.7 19.9-5.4l50.2-29c6.4-3.7 13.3-5.4 19.9-5.4 20.9 0 40 16.7 40 40v58c0 22.1 17.9 40 40 40h111.2m0 88.1H456.4c-17.3 0-34-3.4-49.9-10.1-15.3-6.5-28.9-15.7-40.7-27.4-11.7-11.7-21-25.4-27.4-40.7-3.8-9-6.5-18.3-8.2-27.8-14 5.1-28.9 7.8-43.9 7.8-22.1 0-43.9-5.7-63.1-16.6-19.9-11.2-36.5-27.6-47.9-47.5l-55.6-96.3c-8.6-14.9-14.1-31.2-16.2-48.2-2-16.4-0.9-32.9 3.4-48.9s11.5-30.9 21.5-44.1c5.9-7.8 12.5-14.8 19.9-21-7.4-6.2-14.1-13.2-19.9-21-10-13.2-17.2-28.1-21.5-44.1-4.3-16-5.4-32.5-3.4-48.9 2.1-17.1 7.6-33.3 16.2-48.2l55.6-96.3c11.4-19.8 28-36.2 47.9-47.5 19.2-10.8 41-16.6 63.1-16.6 15 0 29.9 2.7 43.9 7.8 1.7-9.5 4.4-18.8 8.2-27.8 6.5-15.3 15.7-28.9 27.4-40.7 11.7-11.7 25.4-21 40.7-27.4 15.8-6.7 32.6-10.1 49.9-10.1h111.2c17.3 0 34 3.4 49.9 10.1 15.3 6.5 28.9 15.7 40.7 27.4 11.7 11.7 21 25.4 27.4 40.7 3.8 9 6.5 18.3 8.2 27.8 14-5.1 28.9-7.8 43.9-7.8 22.1 0 43.9 5.7 63.1 16.6 19.9 11.2 36.5 27.6 47.9 47.5l55.6 96.3c8.6 14.9 14.1 31.2 16.2 48.2 2 16.4 0.9 32.9-3.4 48.9s-11.5 30.9-21.5 44.1c-5.9 7.8-12.5 14.8-19.9 21 7.4 6.2 14.1 13.2 19.9 21 10 13.2 17.2 28.1 21.5 44.1 4.3 16 5.4 32.5 3.4 48.9-2.1 17.1-7.6 33.3-16.2 48.2l-55.6 96.3c-11.4 19.8-28 36.2-47.9 47.5-19.2 10.8-41 16.6-63.1 16.6-15 0-29.9-2.7-43.9-7.8-1.7 9.5-4.4 18.8-8.2 27.8-6.5 15.3-15.7 28.9-27.4 40.7-11.7 11.7-25.4 21-40.7 27.4-15.9 6.7-32.6 10.1-49.9 10.1zM543.3 368.4m-149.8 0a149.8 149.8 0 1 1 299.6 0 149.8 149.8 0 1 1-299.6 0ZM522.1 235c-77 0-139.7 62.7-139.7 139.7 0 77 62.7 139.7 139.7 139.7 77 0 139.7-62.7 139.7-139.7 0.1-77.1-62.6-139.7-139.7-139.7z m0 191.3c-28.5 0-51.6-23.2-51.6-51.6 0-28.5 23.2-51.6 51.6-51.6 28.5 0 51.6 23.2 51.6 51.6 0 28.4-23.1 51.6-51.6 51.6z"  horiz-adv-x="1024" />

    
    <glyph glyph-name="zengzhishuiguanli" unicode="&#58893;" d="M286.8224 474.37824h386.1248v-90.88H286.8224v90.88z m0 151.46496h386.1248v-90.88H286.8224v90.88z m0-302.94016h220.78976v-90.87488H286.8224v90.87488zM972.8 178.10944c-33.62816 51.66592-33.09056 52.63872-33.09056 52.63872s-116.10624-30.0032-137.728 72.58624h-67.26656s-18.55488-102.7584-137.18016-72.33536c-34.29888-52.68992-35.46624-54.34368-35.50208-54.36928 0.0512-0.04096 92.86144-59.81184 0-140.98432l36.04992-54.63552s102.51776 40.7808 136.09472-70.60992h68.0704s21.35552 102.35904 136.64768 72.09984c32.82944 51.66592 33.37216 52.16256 33.37216 52.16256s-87.04512 69.17632 0.53248 143.44704z m-205.91616-143.57504c-43.32544 0-78.47424 32.37888-78.47424 72.34048 0 39.95648 35.13856 72.3456 78.47424 72.3456s78.47424-32.38912 78.47424-72.3456c0-39.9616-35.13856-72.34048-78.47424-72.34048z m-550.21056-33.70496c-36.34176 0-65.80224 27.15648-65.80224 60.672V668.10368c0 33.50016 29.46048 60.66176 65.80224 60.66176h526.41792c36.352 0 65.80224-27.1616 65.80224-60.66176v-322.24256h81.75104V743.46496c0 41.82528-36.77696 75.73504-82.1504 75.73504H151.2704C105.90208 819.2 69.12 785.29536 69.12 743.46496v-757.33504c0-41.82016 36.78208-75.73504 82.1504-75.73504h377.90208v90.42944H216.67328z"  horiz-adv-x="1024" />

    
    <glyph glyph-name="shangwutubiao-" unicode="&#58954;" d="M64 832v-896h896V832z m64-832V496h176v-496z m240 0V496h288v-496z m528 0H720V496h176zM656 560H128V768h768v-208zM544 336h64v-96h-64zM224 320l-16-48-16 48h-32l16-64h-16v-16h32v-16h-32v-32h32v-16h48v16h16v32h-16v16h16v16h-16l32 64h-48zM752 256v-16h32v-16h-32v-32h32v-16h48v16h16v32h-16v16h16v16h-16l32 64h-48l-16-48-16 48h-32l16-64h-16zM192 704h640v-64H192z"  horiz-adv-x="1024" />

    
    <glyph glyph-name="xiaoguimozengzhishuishenbao" unicode="&#59693;" d="M903.94 314.94A237.51 237.51 0 1 1 973.5 147a235.94 235.94 0 0 1-69.56 167.94z m-19.09-135.36L727.16 21.89a37.5 37.5 0 0 0-53 0l-87 87a37.5 37.5 0 0 0 53 53l60.45-60.46 131.2 131.18a37.5 37.5 0 0 0 53-53zM471-69H210.5C123.65-69 53 1.65 53 88.5v596C53 771.35 123.65 842 210.5 842h528C825.35 842 896 771.35 896 684.5v-250.83a37.5 37.5 0 0 0-75 0V684.5a82.59 82.59 0 0 1-82.5 82.5h-528a82.59 82.59 0 0 1-82.5-82.5v-596a82.59 82.59 0 0 1 82.5-82.5H471a37.5 37.5 0 0 0 0-75zM584.55 497.85l27.72-16.42q12.32 14.88 40.55 59.53l-30.29 18Q603 523 584.55 497.85zM324.84 311.79V511.71h52.87v36.44h-52.87V676.46h-38v-128.31h-61.57v-36.44h61.59v-212q-35.16-11-66.72-20L234 240.19q86.74 30.28 154 49.81-1.53 16.93-2.56 41.57-31.6-10.57-60.6-19.78zM448.54 539.94q21-30.29 37.47-57.49l28.74 18.48q-16.94 26.18-40 55.94zM468.92 231.47h-18.33v48.76h39A278.27 278.27 0 0 0 509 311h-58.41v49.29h104a279.79 279.79 0 0 0 45.84 31.83H413.64V175h36.95v24.64h10.34a276.9 276.9 0 0 0 7.99 31.83zM429 434.21h244.35V420a282.44 282.44 0 0 0 35.93 5.74v185h-87q21 25.65 42.85 53.89l-37 21q-23.86-39.78-49-74.93h-86.19l23.86 16.94q-19.5 26.69-46.19 57.48l-29.26-20.53q21.81-27.47 39.78-53.89h-88v-192H429zM568.64 580h104.71v-115H568.64zM429 580h104.2v-115H429z"  horiz-adv-x="1024" />

    
    <glyph glyph-name="dianhua1" unicode="&#58938;" d="M766.4 396.8c-19.2 49.6-67.2 83.2-120 83.2H624v48c0 17.6-14.4 32-32 32s-32-14.4-32-32v-48h-96v48c0 17.6-14.4 32-32 32s-32-14.4-32-32v-48h-24c-52.8 0-100.8-33.6-120-83.2l-96-256c-4.8-14.4-8-28.8-8-44.8 0-70.4 57.6-128 128-128h462.4c16 0 30.4 3.2 44.8 8 65.6 24 99.2 99.2 75.2 164.8l-96 256z m0-360c-8-3.2-14.4-4.8-22.4-4.8h-464c-35.2 0-64 28.8-64 64 0 8 1.6 16 4.8 22.4l96 256c9.6 25.6 33.6 41.6 59.2 41.6h270.4c27.2 0 51.2-16 59.2-41.6l96-256c14.4-33.6-3.2-70.4-35.2-81.6zM512 352c-52.8 0-96-43.2-96-96s43.2-96 96-96 96 43.2 96 96-43.2 96-96 96z m0-128c-17.6 0-32 14.4-32 32s14.4 32 32 32 32-14.4 32-32-14.4-32-32-32zM920 686.4l-1.6 1.6C835.2 756.8 680 800 512 800 342.4 800 187.2 756.8 105.6 688c-16-12.8-25.6-30.4-25.6-51.2V544c0-35.2 28.8-64 64-64h73.6c22.4 0 44.8 12.8 56 32 1.6 1.6 4.8 9.6 8 16 1.6 4.8 4.8 8 4.8 9.6 6.4 12.8 12.8 22.4 20.8 32 40 48 105.6 72 204.8 73.6 99.2 0 168-22.4 208-70.4 8-9.6 14.4-19.2 20.8-32 1.6-4.8 4.8-8 6.4-14.4 1.6-3.2 3.2-8 4.8-11.2 11.2-22.4 33.6-36.8 57.6-36.8H880c35.2 0 64 28.8 64 64v92.8c0 19.2-8 35.2-24 51.2zM880 544h-68.8c0 1.6-4.8 9.6-4.8 11.2l-12.8-4.8 12.8 4.8s0 1.6-1.6 1.6l-6.4 14.4c-8 16-17.6 30.4-28.8 43.2-52.8 64-137.6 94.4-257.6 94.4-118.4-1.6-201.6-33.6-254.4-97.6-9.6-12.8-19.2-25.6-27.2-43.2-1.6-1.6-3.2-6.4-4.8-11.2-3.2-4.8-6.4-11.2-6.4-14.4H144v92.8l1.6 1.6C216 697.6 360 736 512 736c150.4 0 292.8-36.8 363.2-94.4 3.2-3.2 4.8-4.8 4.8-6.4V544z"  horiz-adv-x="1024" />

    
    <glyph glyph-name="yonghu" unicode="&#58889;" d="M651.296 350.022c63.558 42.814 105.359 115.236 105.359 197.533 0 133.334-110.365 241.976-245.814 241.976-135.452 0-244.16-108.642-244.16-240.322 0-82.298 41.82-154.74 105.357-197.531-143.805-55.98-244.135-191.07-244.135-350.749h68.561c0 158.027 122.068 288.198 277.581 306.304 1.674 0 43.476 3.284 78.595 0h3.35c152.184-21.413 269.225-149.807 269.225-306.18h70.24c-1.675 158.025-102.007 294.644-244.159 348.97z m-140.455 18.122c-102.008 0-183.93 80.645-183.93 181.064s81.922 181.062 183.93 181.062c102.007 0 183.93-80.643 183.93-181.062 0-100.42-81.923-181.064-183.93-181.064z m0 0"  horiz-adv-x="1024" />

    
    <glyph glyph-name="daikaizengzhishuiputongfapiao" unicode="&#59700;" d="M478.54 399.25h73.83v81.46h-73.83z m32.37 65.1q16.37-21.11 28.37-39.64l-20.37-13.1q-11.64 19.27-26.55 40.73zM577.46 399.25h74.19v81.46h-74.19z m38.19 66.55l21.46-12.73q-20-31.63-28.73-42.18l-19.64 11.63a381.26 381.26 0 0 1 26.91 43.28zM493.82 325.06h142.56v-34.91H493.82zM493.82 268.32h142.56v-34.55H493.82zM997 657h0.5v14.34a108.17 108.17 0 0 1-108 108H134.54a108.17 108.17 0 0 1-108-108.05V657a44.84 44.84 0 0 0 0-89.67V499a44.84 44.84 0 0 0 0-89.67V341a44.84 44.84 0 0 0 0-89.67V183a44.84 44.84 0 0 0 0-89.67V79a108.17 108.17 0 0 1 108-108h754.92a108.17 108.17 0 0 1 108 108v14.32h-0.5a44.85 44.85 0 0 0 0 89.7h0.5v68.3h-0.5a44.85 44.85 0 0 0 0 89.7h0.5v68.3h-0.5a44.85 44.85 0 0 0 0 89.7h0.5v68.3h-0.5a44.85 44.85 0 0 0 0 89.7zM195 50.83h-24v89h24z m0 140h-24v89h24z m0 140h-24v89h24z m0 140h-24v89h24z m0 140h-24v89h24zM340.34 240l-9.82 28q22.38 6.36 47.28 14.18V432.34h-43.64v25.82h43.64v90.92h26.91v-90.92h37.46v-25.82h-37.46v-141.65q20.55 6.54 42.92 14 0.72-17.46 1.82-29.46-47.64-13.82-109.11-35.23z m322.22-46.19h-26.18v17.42H493.82v-17.46h-26.19V347.61h194.93z m14.55 172.75h-25.46v10.87H478.54v-10.91h-25.46v136h62.38q-12.74 18.74-28.19 38.19L508 555.27q18.91-21.82 32.73-40.74l-16.91-12h61.1q17.82 24.92 34.73 53.1l26.18-14.91q-15.45-20-30.36-38.19h61.64zM853 50.48h-24v89h24z m0 140h-24v89h24z m0 140h-24v89h24z m0 140h-24v89h24z m0 140h-24v89h24z"  horiz-adv-x="1024" />

    
    <glyph glyph-name="shang" unicode="&#59043;" d="M1023.707512 896l1023.707512-1023.707512H0z"  horiz-adv-x="2048" />

    
    <glyph glyph-name="chanyexinxi" unicode="&#59212;" d="M667.9 141.39999999999998l-155.2-94.1-155.2 94.1c-4.7-14.1-9.4-23.5-14.1-32.9-4.7-9.4-9.4-18.8-14.1-23.5l183.4-112.9L696.1 85c-14.1 18.8-23.5 37.6-28.2 56.4zM254.1 338.9V531.7l155.2 94.1c-14.1 14.1-23.5 37.6-32.9 56.4L192.9 569.3v-230.4c18.8 4.7 37.7 4.7 61.2 0zM145.9 230.70000000000005c-9.4-18.8-14.1-42.3-9.4-65.8 4.7-23.5 18.8-42.3 37.6-51.7s42.3-14.1 61.1-9.4c23.5 4.7 37.6 18.8 51.7 42.3 14.1 28.2 14.1 61.1 0 89.4-14.1 28.2-42.3 42.3-70.5 42.3-28.2 0-51.7-18.9-70.5-47.1z m630.2 108.2c18.8 4.7 42.3 4.7 61.1 0V569.3L649.1 682.2c-4.7-23.5-18.8-42.3-32.9-56.4l155.2-94.1v-192.8h4.7z m103.4-197.5c18.8 32.9 14.1 79.9-14.1 108.2-28.2 28.2-65.8 32.9-98.8 14.1s-47-61.1-37.6-98.8c4.7-23.5 18.8-42.3 37.6-51.7 37.7-23.6 89.4-14.1 112.9 28.2zM442.2 776.3c-23.5-42.3-9.4-94.1 32.9-122.3 37.6-23.5 89.4-9.4 108.2 32.9 23.5 42.3 9.4 94.1-32.9 122.3-14.1 9.4-37.6 14.1-61.1 4.7-18.9-4.7-37.7-18.8-47.1-37.6z"  horiz-adv-x="1024" />

    
    <glyph glyph-name="zhuanshi" unicode="&#58891;" d="M256.372 713.094l75.939-178.903H143.893l112.479 178.903z m618.922-178.903H686.877L762.6 713.094l112.693-178.903z m-203.16-39.85h199.637L561.435 127.104l110.7 367.237zM457.752 127.104l-310.55 367.013h199.854l110.696-367.013zM363.78 556.525l-75.49 178.468h179.822L363.78 556.525z m187.296 178.468h179.822l-75.7-178.468-104.122 178.468zM395.033 534.191l114.452 196.206L624.16 534.191H395.033z m238.368-39.85L509.485 75.64 385.786 494.341h247.615z m317.812 38.53L791.424 786.898c-5.929 9.197-15.6 14.67-25.96 14.67h-511.95c-10.361 0-20.031-5.473-25.752-14.67L67.757 532.872c-7.499-11.822-7.048-27.585 1.079-38.973L484.83-20.498c5.935-8.08 14.961-12.91 24.655-12.91 9.697 0 18.936 4.83 24.87 12.91l415.783 514.4c8.34 11.385 8.791 27.148 1.074 38.97z m0 0"  horiz-adv-x="1024" />

    
    </font>
</defs>
</svg>
